
<svg width="152" height="110" viewBox="0 0 152 110" fill="none" xmlns="http://www.w3.org/2000/svg">
<rect y="0.783203" width="152" height="109" fill="#FFE700"/>
<path d="M13.7026 64.1832C13.7026 63.0845 13.9479 62.1032 14.4386 61.2392C14.9399 60.3645 15.6172 59.6872 16.4706 59.2072C17.3346 58.7165 18.2999 58.4712 19.3666 58.4712C20.6146 58.4712 21.7079 58.7912 22.6466 59.4312C23.5852 60.0712 24.2412 60.9565 24.6146 62.0872H22.0386C21.7826 61.5539 21.4199 61.1539 20.9506 60.8872C20.4919 60.6205 19.9586 60.4872 19.3506 60.4872C18.6999 60.4872 18.1186 60.6419 17.6066 60.9512C17.1052 61.2499 16.7106 61.6765 16.4226 62.2312C16.1452 62.7859 16.0066 63.4365 16.0066 64.1832C16.0066 64.9192 16.1452 65.5699 16.4226 66.1352C16.7106 66.6899 17.1052 67.1219 17.6066 67.4312C18.1186 67.7299 18.6999 67.8792 19.3506 67.8792C19.9586 67.8792 20.4919 67.7459 20.9506 67.4792C21.4199 67.2019 21.7826 66.7965 22.0386 66.2632H24.6146C24.2412 67.4045 23.5852 68.2952 22.6466 68.9352C21.7186 69.5645 20.6252 69.8792 19.3666 69.8792C18.2999 69.8792 17.3346 69.6392 16.4706 69.1592C15.6172 68.6685 14.9399 67.9912 14.4386 67.1272C13.9479 66.2632 13.7026 65.2819 13.7026 64.1832ZM30.4638 69.9272C29.6105 69.9272 28.8425 69.7405 28.1598 69.3672C27.4772 68.9832 26.9385 68.4445 26.5438 67.7512C26.1598 67.0579 25.9678 66.2579 25.9678 65.3512C25.9678 64.4445 26.1652 63.6445 26.5598 62.9512C26.9652 62.2579 27.5145 61.7245 28.2078 61.3512C28.9012 60.9672 29.6745 60.7752 30.5278 60.7752C31.3812 60.7752 32.1545 60.9672 32.8478 61.3512C33.5412 61.7245 34.0852 62.2579 34.4798 62.9512C34.8852 63.6445 35.0878 64.4445 35.0878 65.3512C35.0878 66.2579 34.8798 67.0579 34.4638 67.7512C34.0585 68.4445 33.5038 68.9832 32.7998 69.3672C32.1065 69.7405 31.3278 69.9272 30.4638 69.9272ZM30.4638 67.9752C30.8692 67.9752 31.2478 67.8792 31.5998 67.6872C31.9625 67.4845 32.2505 67.1859 32.4638 66.7912C32.6772 66.3965 32.7838 65.9165 32.7838 65.3512C32.7838 64.5085 32.5598 63.8632 32.1118 63.4152C31.6745 62.9565 31.1358 62.7272 30.4958 62.7272C29.8558 62.7272 29.3172 62.9565 28.8798 63.4152C28.4532 63.8632 28.2398 64.5085 28.2398 65.3512C28.2398 66.1939 28.4478 66.8445 28.8638 67.3032C29.2905 67.7512 29.8238 67.9752 30.4638 67.9752ZM41.643 60.7912C42.699 60.7912 43.5523 61.1272 44.203 61.7992C44.8536 62.4605 45.179 63.3885 45.179 64.5832V69.7832H42.939V64.8872C42.939 64.1832 42.763 63.6445 42.411 63.2712C42.059 62.8872 41.579 62.6952 40.971 62.6952C40.3523 62.6952 39.8616 62.8872 39.499 63.2712C39.147 63.6445 38.971 64.1832 38.971 64.8872V69.7832H36.731V60.9192H38.971V62.0232C39.2696 61.6392 39.6483 61.3405 40.107 61.1272C40.5763 60.9032 41.0883 60.7912 41.643 60.7912ZM49.9171 62.7592V67.0472C49.9171 67.3459 49.9864 67.5645 50.1251 67.7032C50.2744 67.8312 50.5197 67.8952 50.8611 67.8952H51.9011V69.7832H50.4931C48.6051 69.7832 47.6611 68.8659 47.6611 67.0312V62.7592H46.6051V60.9192H47.6611V58.7272H49.9171V60.9192H51.9011V62.7592H49.9171ZM52.9362 65.3192C52.9362 64.4232 53.1122 63.6285 53.4642 62.9352C53.8269 62.2419 54.3122 61.7085 54.9202 61.3352C55.5389 60.9619 56.2269 60.7752 56.9842 60.7752C57.6455 60.7752 58.2215 60.9085 58.7122 61.1752C59.2135 61.4419 59.6135 61.7779 59.9122 62.1832V60.9192H62.1682V69.7832H59.9122V68.4872C59.6242 68.9032 59.2242 69.2499 58.7122 69.5272C58.2109 69.7939 57.6295 69.9272 56.9682 69.9272C56.2215 69.9272 55.5389 69.7352 54.9202 69.3512C54.3122 68.9672 53.8269 68.4285 53.4642 67.7352C53.1122 67.0312 52.9362 66.2259 52.9362 65.3192ZM59.9122 65.3512C59.9122 64.8072 59.8055 64.3432 59.5922 63.9592C59.3789 63.5645 59.0909 63.2659 58.7282 63.0632C58.3655 62.8499 57.9762 62.7432 57.5602 62.7432C57.1442 62.7432 56.7602 62.8445 56.4082 63.0472C56.0562 63.2499 55.7682 63.5485 55.5442 63.9432C55.3309 64.3272 55.2242 64.7859 55.2242 65.3192C55.2242 65.8525 55.3309 66.3219 55.5442 66.7272C55.7682 67.1219 56.0562 67.4259 56.4082 67.6392C56.7709 67.8525 57.1549 67.9592 57.5602 67.9592C57.9762 67.9592 58.3655 67.8579 58.7282 67.6552C59.0909 67.4419 59.3789 67.1432 59.5922 66.7592C59.8055 66.3645 59.9122 65.8952 59.9122 65.3512ZM63.78 65.3512C63.78 64.4339 63.9666 63.6339 64.34 62.9512C64.7133 62.2579 65.2306 61.7245 65.892 61.3512C66.5533 60.9672 67.3106 60.7752 68.164 60.7752C69.2626 60.7752 70.1693 61.0525 70.884 61.6072C71.6093 62.1512 72.0946 62.9192 72.34 63.9112H69.924C69.796 63.5272 69.5773 63.2285 69.268 63.0152C68.9693 62.7912 68.596 62.6792 68.148 62.6792C67.508 62.6792 67.0013 62.9139 66.628 63.3832C66.2546 63.8419 66.068 64.4979 66.068 65.3512C66.068 66.1939 66.2546 66.8499 66.628 67.3192C67.0013 67.7779 67.508 68.0072 68.148 68.0072C69.0546 68.0072 69.6466 67.6019 69.924 66.7912H72.34C72.0946 67.7512 71.6093 68.5139 70.884 69.0792C70.1586 69.6445 69.252 69.9272 68.164 69.9272C67.3106 69.9272 66.5533 69.7405 65.892 69.3672C65.2306 68.9832 64.7133 68.4499 64.34 67.7672C63.9666 67.0739 63.78 66.2685 63.78 65.3512ZM76.589 62.7592V67.0472C76.589 67.3459 76.6583 67.5645 76.797 67.7032C76.9463 67.8312 77.1916 67.8952 77.533 67.8952H78.573V69.7832H77.165C75.277 69.7832 74.333 68.8659 74.333 67.0312V62.7592H73.277V60.9192H74.333V58.7272H76.589V60.9192H78.573V62.7592H76.589ZM82.4241 57.9432V69.7832H80.1841V57.9432H82.4241ZM92.8772 65.1592C92.8772 65.4792 92.8559 65.7672 92.8132 66.0232H86.3332C86.3865 66.6632 86.6105 67.1645 87.0052 67.5272C87.3999 67.8899 87.8852 68.0712 88.4612 68.0712C89.2932 68.0712 89.8852 67.7139 90.2372 66.9992H92.6532C92.3972 67.8525 91.9065 68.5565 91.1812 69.1112C90.4559 69.6552 89.5652 69.9272 88.5092 69.9272C87.6559 69.9272 86.8879 69.7405 86.2052 69.3672C85.5332 68.9832 85.0052 68.4445 84.6212 67.7512C84.2479 67.0579 84.0612 66.2579 84.0612 65.3512C84.0612 64.4339 84.2479 63.6285 84.6212 62.9352C84.9945 62.2419 85.5172 61.7085 86.1892 61.3352C86.8612 60.9619 87.6345 60.7752 88.5092 60.7752C89.3519 60.7752 90.1039 60.9565 90.7652 61.3192C91.4372 61.6819 91.9545 62.1992 92.3172 62.8712C92.6905 63.5325 92.8772 64.2952 92.8772 65.1592ZM90.5572 64.5192C90.5465 63.9432 90.3385 63.4845 89.9332 63.1432C89.5279 62.7912 89.0319 62.6152 88.4452 62.6152C87.8905 62.6152 87.4212 62.7859 87.0372 63.1272C86.6639 63.4579 86.4345 63.9219 86.3492 64.5192H90.5572ZM97.9042 69.9272C97.1789 69.9272 96.5282 69.7992 95.9522 69.5432C95.3762 69.2765 94.9175 68.9192 94.5762 68.4712C94.2455 68.0232 94.0642 67.5272 94.0322 66.9832H96.2882C96.3309 67.3245 96.4962 67.6072 96.7842 67.8312C97.0829 68.0552 97.4509 68.1672 97.8882 68.1672C98.3149 68.1672 98.6455 68.0819 98.8802 67.9112C99.1255 67.7405 99.2482 67.5219 99.2482 67.2552C99.2482 66.9672 99.0989 66.7539 98.8002 66.6152C98.5122 66.4659 98.0482 66.3059 97.4082 66.1352C96.7469 65.9752 96.2029 65.8099 95.7762 65.6392C95.3602 65.4685 94.9975 65.2072 94.6882 64.8552C94.3895 64.5032 94.2402 64.0285 94.2402 63.4312C94.2402 62.9405 94.3789 62.4925 94.6562 62.0872C94.9442 61.6819 95.3495 61.3619 95.8722 61.1272C96.4055 60.8925 97.0295 60.7752 97.7442 60.7752C98.8002 60.7752 99.6429 61.0419 100.272 61.5752C100.902 62.0979 101.248 62.8072 101.312 63.7032H99.1682C99.1362 63.3512 98.9869 63.0739 98.7202 62.8712C98.4642 62.6579 98.1175 62.5512 97.6802 62.5512C97.2749 62.5512 96.9602 62.6259 96.7362 62.7752C96.5229 62.9245 96.4162 63.1325 96.4162 63.3992C96.4162 63.6979 96.5655 63.9272 96.8642 64.0872C97.1629 64.2365 97.6269 64.3912 98.2562 64.5512C98.8962 64.7112 99.4242 64.8765 99.8402 65.0472C100.256 65.2179 100.614 65.4845 100.912 65.8472C101.222 66.1992 101.382 66.6685 101.392 67.2552C101.392 67.7672 101.248 68.2259 100.96 68.6312C100.683 69.0365 100.278 69.3565 99.7442 69.5912C99.2215 69.8152 98.6082 69.9272 97.9042 69.9272ZM106.623 69.9272C105.898 69.9272 105.247 69.7992 104.671 69.5432C104.095 69.2765 103.636 68.9192 103.295 68.4712C102.964 68.0232 102.783 67.5272 102.751 66.9832H105.007C105.05 67.3245 105.215 67.6072 105.503 67.8312C105.802 68.0552 106.17 68.1672 106.607 68.1672C107.034 68.1672 107.364 68.0819 107.599 67.9112C107.844 67.7405 107.967 67.5219 107.967 67.2552C107.967 66.9672 107.818 66.7539 107.519 66.6152C107.231 66.4659 106.767 66.3059 106.127 66.1352C105.466 65.9752 104.922 65.8099 104.495 65.6392C104.079 65.4685 103.716 65.2072 103.407 64.8552C103.108 64.5032 102.959 64.0285 102.959 63.4312C102.959 62.9405 103.098 62.4925 103.375 62.0872C103.663 61.6819 104.068 61.3619 104.591 61.1272C105.124 60.8925 105.748 60.7752 106.463 60.7752C107.519 60.7752 108.362 61.0419 108.991 61.5752C109.62 62.0979 109.967 62.8072 110.031 63.7032H107.887C107.855 63.3512 107.706 63.0739 107.439 62.8712C107.183 62.6579 106.836 62.5512 106.399 62.5512C105.994 62.5512 105.679 62.6259 105.455 62.7752C105.242 62.9245 105.135 63.1325 105.135 63.3992C105.135 63.6979 105.284 63.9272 105.583 64.0872C105.882 64.2365 106.346 64.3912 106.975 64.5512C107.615 64.7112 108.143 64.8765 108.559 65.0472C108.975 65.2179 109.332 65.4845 109.631 65.8472C109.94 66.1992 110.1 66.6685 110.111 67.2552C110.111 67.7672 109.967 68.2259 109.679 68.6312C109.402 69.0365 108.996 69.3565 108.463 69.5912C107.94 69.8152 107.327 69.9272 106.623 69.9272ZM13.6706 89.3512C13.6706 88.4339 13.8572 87.6339 14.2306 86.9512C14.6039 86.2579 15.1212 85.7245 15.7826 85.3512C16.4439 84.9672 17.2012 84.7752 18.0546 84.7752C19.1532 84.7752 20.0599 85.0525 20.7746 85.6072C21.4999 86.1512 21.9852 86.9192 22.2306 87.9112H19.8146C19.6866 87.5272 19.4679 87.2285 19.1586 87.0152C18.8599 86.7912 18.4866 86.6792 18.0386 86.6792C17.3986 86.6792 16.8919 86.9139 16.5186 87.3832C16.1452 87.8419 15.9586 88.4979 15.9586 89.3512C15.9586 90.1939 16.1452 90.8499 16.5186 91.3192C16.8919 91.7779 17.3986 92.0072 18.0386 92.0072C18.9452 92.0072 19.5372 91.6019 19.8146 90.7912H22.2306C21.9852 91.7512 21.4999 92.5139 20.7746 93.0792C20.0492 93.6445 19.1426 93.9272 18.0546 93.9272C17.2012 93.9272 16.4439 93.7405 15.7826 93.3672C15.1212 92.9832 14.6039 92.4499 14.2306 91.7672C13.8572 91.0739 13.6706 90.2685 13.6706 89.3512ZM28.8636 84.7912C29.5356 84.7912 30.1329 84.9405 30.6556 85.2392C31.1782 85.5272 31.5836 85.9592 31.8716 86.5352C32.1702 87.1005 32.3196 87.7832 32.3196 88.5832V93.7832H30.0796V88.8872C30.0796 88.1832 29.9036 87.6445 29.5516 87.2712C29.1996 86.8872 28.7196 86.6952 28.1116 86.6952C27.4929 86.6952 27.0022 86.8872 26.6396 87.2712C26.2876 87.6445 26.1116 88.1832 26.1116 88.8872V93.7832H23.8716V81.9432H26.1116V86.0232C26.3996 85.6392 26.7836 85.3405 27.2636 85.1272C27.7436 84.9032 28.2769 84.7912 28.8636 84.7912ZM42.6897 89.1592C42.6897 89.4792 42.6684 89.7672 42.6257 90.0232H36.1457C36.199 90.6632 36.423 91.1645 36.8177 91.5272C37.2124 91.8899 37.6977 92.0712 38.2737 92.0712C39.1057 92.0712 39.6977 91.7139 40.0497 90.9992H42.4657C42.2097 91.8525 41.719 92.5565 40.9937 93.1112C40.2684 93.6552 39.3777 93.9272 38.3217 93.9272C37.4684 93.9272 36.7004 93.7405 36.0177 93.3672C35.3457 92.9832 34.8177 92.4445 34.4337 91.7512C34.0604 91.0579 33.8737 90.2579 33.8737 89.3512C33.8737 88.4339 34.0604 87.6285 34.4337 86.9352C34.807 86.2419 35.3297 85.7085 36.0017 85.3352C36.6737 84.9619 37.447 84.7752 38.3217 84.7752C39.1644 84.7752 39.9164 84.9565 40.5777 85.3192C41.2497 85.6819 41.767 86.1992 42.1297 86.8712C42.503 87.5325 42.6897 88.2952 42.6897 89.1592ZM40.3697 88.5192C40.359 87.9432 40.151 87.4845 39.7457 87.1432C39.3404 86.7912 38.8444 86.6152 38.2577 86.6152C37.703 86.6152 37.2337 86.7859 36.8497 87.1272C36.4764 87.4579 36.247 87.9219 36.1617 88.5192H40.3697ZM43.7487 89.3512C43.7487 88.4339 43.9354 87.6339 44.3087 86.9512C44.682 86.2579 45.1994 85.7245 45.8607 85.3512C46.522 84.9672 47.2794 84.7752 48.1327 84.7752C49.2314 84.7752 50.138 85.0525 50.8527 85.6072C51.578 86.1512 52.0634 86.9192 52.3087 87.9112H49.8927C49.7647 87.5272 49.546 87.2285 49.2367 87.0152C48.938 86.7912 48.5647 86.6792 48.1167 86.6792C47.4767 86.6792 46.97 86.9139 46.5967 87.3832C46.2234 87.8419 46.0367 88.4979 46.0367 89.3512C46.0367 90.1939 46.2234 90.8499 46.5967 91.3192C46.97 91.7779 47.4767 92.0072 48.1167 92.0072C49.0234 92.0072 49.6154 91.6019 49.8927 90.7912H52.3087C52.0634 91.7512 51.578 92.5139 50.8527 93.0792C50.1274 93.6445 49.2207 93.9272 48.1327 93.9272C47.2794 93.9272 46.522 93.7405 45.8607 93.3672C45.1994 92.9832 44.682 92.4499 44.3087 91.7672C43.9354 91.0739 43.7487 90.2685 43.7487 89.3512ZM59.1977 93.7832L56.1897 90.0072V93.7832H53.9497V81.9432H56.1897V88.6792L59.1657 84.9192H62.0777L58.1737 89.3672L62.1097 93.7832H59.1977ZM68.242 83.8632C67.8473 83.8632 67.5166 83.7405 67.25 83.4952C66.994 83.2392 66.866 82.9245 66.866 82.5512C66.866 82.1779 66.994 81.8685 67.25 81.6232C67.5166 81.3672 67.8473 81.2392 68.242 81.2392C68.6366 81.2392 68.962 81.3672 69.218 81.6232C69.4846 81.8685 69.618 82.1779 69.618 82.5512C69.618 82.9245 69.4846 83.2392 69.218 83.4952C68.962 83.7405 68.6366 83.8632 68.242 83.8632ZM69.346 84.9192V93.7832H67.106V84.9192H69.346ZM76.4711 84.7912C77.5271 84.7912 78.3804 85.1272 79.0311 85.7992C79.6817 86.4605 80.0071 87.3885 80.0071 88.5832V93.7832H77.7671V88.8872C77.7671 88.1832 77.5911 87.6445 77.2391 87.2712C76.8871 86.8872 76.4071 86.6952 75.7991 86.6952C75.1804 86.6952 74.6897 86.8872 74.3271 87.2712C73.9751 87.6445 73.7991 88.1832 73.7991 88.8872V93.7832H71.5591V84.9192H73.7991V86.0232C74.0977 85.6392 74.4764 85.3405 74.9351 85.1272C75.4044 84.9032 75.9164 84.7912 76.4711 84.7912Z" fill="black"/>
<g clip-path="url(#clip0_10434_4009)">
<rect x="81.1426" y="11.7832" width="34" height="68" rx="17" transform="rotate(90 81.1426 11.7832)" fill="#121212"/>
<g clip-path="url(#clip1_10434_4009)">
<path d="M49.4426 22.4932C49.0526 22.8832 49.0526 23.5132 49.4426 23.9032L53.3126 27.7832L38.1426 27.7832C37.5926 27.7832 37.1426 28.2332 37.1426 28.7832C37.1426 29.3332 37.5926 29.7832 38.1426 29.7832L53.3126 29.7832L49.4326 33.6632C49.0426 34.0532 49.0426 34.6832 49.4326 35.0732C49.8226 35.4632 50.4526 35.4632 50.8426 35.0732L56.4426 29.4832C56.8326 29.0932 56.8326 28.4632 56.4426 28.0732L50.8526 22.4932C50.4626 22.1032 49.8226 22.1032 49.4426 22.4932Z" fill="white"/>
</g>
</g>
<path d="M135.399 50.069C134.676 50.1342 133.953 50.1668 133.246 50.2646C132.194 50.4277 131.389 50.9821 130.896 51.9279C130.567 52.5638 130.272 53.2161 130.025 53.9009C129.368 55.6783 128.973 57.5372 128.48 59.3472C128.415 59.5918 128.398 59.869 128.349 60.1136C128.333 60.2114 128.316 60.3256 128.267 60.4071C128.152 60.6517 127.938 60.7821 127.692 60.7495C127.445 60.7169 127.248 60.5212 127.232 60.244C127.215 60.0973 127.215 59.9342 127.248 59.7712C127.347 59.1515 127.314 58.5482 127.248 57.9449C127.117 56.7545 126.936 55.5642 126.558 54.4227C126.081 53.0693 125.358 51.879 124.224 50.9495C123.649 50.4766 123.058 50.02 122.466 49.5472C121.562 48.8297 120.527 48.3568 119.459 47.9329C119.294 47.8676 119.097 47.8513 118.9 47.7861C118.769 47.7535 118.621 47.7209 118.489 47.6557C118.21 47.5252 118.095 47.248 118.161 46.9708C118.226 46.7099 118.473 46.5468 118.769 46.5794C118.982 46.5957 119.212 46.6447 119.426 46.7099C120.642 47.0849 121.891 47.0034 123.14 46.8893C123.6 46.8566 124.06 46.8077 124.504 46.7099C125.539 46.4653 126.344 45.8946 126.821 44.9325C127.199 44.1824 127.462 43.3997 127.642 42.5681C127.938 41.2799 128.349 40.008 128.513 38.6872C128.595 38.0187 128.694 37.3501 128.776 36.6653C128.809 36.4859 128.826 36.3065 128.875 36.1272C128.973 35.9478 129.121 35.801 129.335 35.7847C129.549 35.7684 129.746 35.8826 129.811 36.1109C129.894 36.3555 129.959 36.6164 129.976 36.8773C130.058 38.0839 130.14 39.2906 130.222 40.5135C130.304 41.6224 130.354 42.7312 130.469 43.8237C130.567 44.7205 130.88 45.5685 131.389 46.3348C131.849 47.036 132.49 47.4763 133.246 47.7861C133.739 47.9818 134.215 48.1938 134.708 48.3568C134.971 48.4547 135.267 48.4873 135.547 48.5525C136.089 48.6829 136.648 48.7971 137.19 48.9438C137.436 49.0091 137.601 49.1884 137.617 49.4493C137.65 49.6939 137.502 49.9385 137.239 50.0364C137.058 50.1016 136.861 50.1505 136.664 50.1505C136.237 50.1668 135.793 50.1505 135.366 50.1505C135.399 50.1179 135.399 50.0853 135.399 50.069Z" fill="#121212"/>
<defs>
<clipPath id="clip0_10434_4009">
<rect x="81.1426" y="11.7832" width="34" height="68" rx="17" transform="rotate(90 81.1426 11.7832)" fill="white"/>
</clipPath>
<clipPath id="clip1_10434_4009">
<rect width="24" height="24" fill="white" transform="translate(59.1426 16.7832) rotate(90)"/>
</clipPath>
</defs>
</svg>
