<svg width="418" height="316" viewBox="0 0 418 316" fill="none" xmlns="http://www.w3.org/2000/svg">
<g filter="url(#filter0_d_6788_3259)">
<path d="M186.216 158.238C188.123 158.238 189.591 159.192 190.618 161.099C191.791 162.859 192.378 165.133 192.378 167.921C192.378 171.295 191.865 173.936 190.838 175.843C189.811 177.751 188.197 179.438 185.996 180.905C177.34 186.627 163.549 196.016 144.623 209.074C138.902 239.443 131.493 263.357 122.397 280.816C113.3 298.274 101.784 307.004 87.8459 307.004C80.3636 307.004 74.275 304.656 69.5802 299.962C64.8855 295.414 62.5381 289.398 62.5381 281.916C62.5381 275.021 64.0785 268.052 67.1595 261.01C70.2404 253.967 75.9622 245.825 84.3248 236.582C92.8341 227.339 104.791 216.776 120.196 204.892L120.856 200.711C109.266 205.553 97.8956 207.973 86.7455 207.973C70.3138 207.973 55.8627 204.819 43.3922 198.51C30.9216 192.055 21.2387 182.959 14.3432 171.222C7.44773 159.485 4 145.841 4 130.289C4 108.576 8.10793 89.4301 16.3238 72.8517C24.5397 56.1265 35.8365 43.2158 50.2143 34.1197C64.7387 24.8768 80.9504 20.2554 98.8493 20.2554C116.015 20.2554 128.852 24.29 137.361 32.3592C146.017 40.2816 150.345 50.8449 150.345 64.049C150.345 72.705 148.731 79.6738 145.504 84.9554C142.423 90.0903 137.948 92.6577 132.08 92.6577C128.118 92.6577 124.891 91.7041 122.397 89.7969C120.049 87.8896 118.875 85.2488 118.875 81.8744C118.875 80.4073 119.169 77.9132 119.756 74.3921C120.636 70.2842 121.076 67.0565 121.076 64.7092C121.076 58.5473 119.169 53.7791 115.354 50.4047C111.687 47.0304 105.451 45.3432 96.6486 45.3432C85.9386 45.3432 75.9622 48.4241 66.7194 54.586C57.6232 60.7479 50.2876 69.9908 44.7126 82.3146C39.1375 94.4917 36.35 109.163 36.35 126.328C36.35 143.934 41.1181 157.578 50.6544 167.261C60.3374 176.797 74.275 181.565 92.4673 181.565C102.59 181.565 113.154 179.291 124.157 174.743L127.238 147.895L127.755 143.56C127.755 143.56 128.046 139.899 128.462 135.032C128.896 129.963 129.879 127.575 132.08 125.228C134.28 122.88 137.214 121.707 140.882 121.707L145.284 121.927C148.511 121.927 151.152 123.027 153.206 125.228C155.407 127.282 156.287 130.289 155.847 134.251C155.407 138.945 153.94 149.582 151.445 166.16L149.025 182.886C160.762 174.083 171.472 166.454 181.155 159.999C183.062 158.825 184.749 158.238 186.216 158.238ZM90.2666 285.657C94.0811 285.657 98.2624 281.329 102.81 272.673C107.359 264.017 111.613 250.08 115.574 230.86C104.424 240.397 96.3552 248.979 91.367 256.608C86.5255 264.384 84.1047 271.206 84.1047 277.075C84.1047 282.796 86.1587 285.657 90.2666 285.657Z" fill="#121212"/>
<path d="M245.754 157.789C247.662 157.789 249.129 158.669 250.156 160.429C251.33 162.19 251.916 164.611 251.916 167.692C251.916 173.56 250.523 178.108 247.735 181.336C241.426 189.112 234.531 195.494 227.049 200.482C219.713 205.47 211.351 207.964 201.961 207.964C189.05 207.964 179.441 202.096 173.132 190.359C166.97 178.622 163.889 163.437 163.889 144.805C163.889 126.906 166.163 106.513 170.711 83.6258C175.406 60.7387 182.228 41.0793 191.178 24.6476C200.274 8.21587 211.057 0 223.528 0C230.57 0 236.071 3.30102 240.033 9.90306C244.141 16.3584 246.195 25.6746 246.195 37.8517C246.195 55.3104 241.353 75.5567 231.67 98.5904C221.987 121.624 208.856 144.438 192.278 167.032C193.305 173.047 194.992 177.375 197.34 180.016C199.687 182.51 202.768 183.757 206.582 183.757C212.598 183.757 217.879 182.07 222.427 178.695C226.975 175.174 232.77 169.232 239.813 160.87C241.573 158.816 243.554 157.789 245.754 157.789ZM218.686 21.7867C215.312 21.7867 211.497 27.8753 207.243 40.0524C202.988 52.2295 199.247 67.3408 196.019 85.3863C192.791 103.432 191.031 120.744 190.738 137.322C201.154 120.157 209.443 102.992 215.605 85.8265C221.767 68.5145 224.848 52.7429 224.848 38.5119C224.848 27.3618 222.794 21.7867 218.686 21.7867Z" fill="#121212"/>
<path d="M254.557 208.463C247.662 208.463 242.087 205.676 237.832 200.101C233.724 194.379 231.67 186.53 231.67 176.553C231.67 165.55 232.404 155.5 233.871 146.404C235.338 137.161 237.759 127.405 241.133 117.135C242.6 112.734 244.654 109.58 247.295 107.672C249.936 105.765 254.117 104.811 259.839 104.811C263.066 104.811 265.267 105.325 266.441 106.352C267.761 107.379 268.421 108.919 268.421 110.973C268.421 112.147 267.615 116.108 266.001 122.857C264.534 128.285 263.36 133.2 262.48 137.601C259.545 153.006 258.078 163.276 258.078 168.411C258.078 171.492 258.445 173.693 259.179 175.013C259.912 176.187 261.086 176.774 262.7 176.774C264.9 176.774 267.688 174.573 271.062 170.172C274.437 165.623 277.958 158.875 281.626 149.925C285.44 140.829 289.034 129.899 292.409 117.135C293.583 112.734 295.343 109.58 297.69 107.672C300.185 105.765 303.852 104.811 308.694 104.811C311.922 104.811 314.196 105.692 315.516 107.452C316.983 109.066 317.717 111.56 317.717 114.934C317.717 118.602 317.423 122.71 316.836 127.258C316.25 131.66 315.589 136.208 314.856 140.902C313.389 150.292 312.215 158.875 311.335 166.65C310.454 174.279 310.014 183.009 310.014 192.839C310.014 198.414 308.841 202.448 306.493 204.942C304.293 207.29 300.625 208.463 295.49 208.463C290.061 208.463 286.247 207.07 284.046 204.282C281.992 201.348 280.965 195.773 280.965 187.557C280.965 185.943 281.112 182.349 281.405 176.774C278.911 187.043 275.17 194.892 270.182 200.321C265.34 205.749 260.132 208.463 254.557 208.463Z" fill="#121212"/>
<path d="M297.033 195.246C304.399 180.79 324.675 152.212 346.853 153.546" stroke="#121212" stroke-width="26.471" stroke-linecap="round"/>
<path d="M413.407 152.641C412.503 162.962 402.858 167.202 393.885 164.801C380.714 161.277 377.109 152.469 365.136 145.592C362.782 144.24 362.591 140.792 365.088 139.725C376.974 134.644 389.212 135.001 397.019 136.28C405.737 137.708 414.068 145.099 413.407 152.641Z" fill="#121212"/>
</g>
<defs>
<filter id="filter0_d_6788_3259" x="0" y="0" width="417.444" height="315.004" filterUnits="userSpaceOnUse" color-interpolation-filters="sRGB">
<feFlood flood-opacity="0" result="BackgroundImageFix"/>
<feColorMatrix in="SourceAlpha" type="matrix" values="0 0 0 0 0 0 0 0 0 0 0 0 0 0 0 0 0 0 127 0" result="hardAlpha"/>
<feOffset dy="4"/>
<feGaussianBlur stdDeviation="2"/>
<feComposite in2="hardAlpha" operator="out"/>
<feColorMatrix type="matrix" values="0 0 0 0 0 0 0 0 0 0 0 0 0 0 0 0 0 0 0.25 0"/>
<feBlend mode="normal" in2="BackgroundImageFix" result="effect1_dropShadow_6788_3259"/>
<feBlend mode="normal" in="SourceGraphic" in2="effect1_dropShadow_6788_3259" result="shape"/>
</filter>
</defs>
</svg>
