
<svg width="152" height="108" viewBox="0 0 152 108" fill="none" xmlns="http://www.w3.org/2000/svg">
<rect y="0.773438" width="152" height="107" fill="#FFE700"/>
<path d="M18.864 66.7734L16.4 62.4214H15.344V66.7734H13.104V55.6054H17.296C18.16 55.6054 18.896 55.7601 19.504 56.0694C20.112 56.3681 20.5653 56.7788 20.864 57.3014C21.1733 57.8134 21.328 58.3894 21.328 59.0294C21.328 59.7654 21.1147 60.4321 20.688 61.0294C20.2613 61.6161 19.6267 62.0214 18.784 62.2454L21.456 66.7734H18.864ZM15.344 60.7414H17.216C17.824 60.7414 18.2773 60.5974 18.576 60.3094C18.8747 60.0108 19.024 59.6001 19.024 59.0774C19.024 58.5654 18.8747 58.1708 18.576 57.8934C18.2773 57.6054 17.824 57.4614 17.216 57.4614H15.344V60.7414ZM22.778 62.3094C22.778 61.4134 22.954 60.6188 23.306 59.9254C23.6687 59.2321 24.154 58.6988 24.762 58.3254C25.3807 57.9521 26.0687 57.7654 26.826 57.7654C27.4873 57.7654 28.0633 57.8988 28.554 58.1654C29.0553 58.4321 29.4553 58.7681 29.754 59.1734V57.9094H32.01V66.7734H29.754V65.4774C29.466 65.8934 29.066 66.2401 28.554 66.5174C28.0527 66.7841 27.4713 66.9174 26.81 66.9174C26.0633 66.9174 25.3807 66.7254 24.762 66.3414C24.154 65.9574 23.6687 65.4188 23.306 64.7254C22.954 64.0214 22.778 63.2161 22.778 62.3094ZM29.754 62.3414C29.754 61.7974 29.6473 61.3334 29.434 60.9494C29.2207 60.5548 28.9327 60.2561 28.57 60.0534C28.2073 59.8401 27.818 59.7334 27.402 59.7334C26.986 59.7334 26.602 59.8348 26.25 60.0374C25.898 60.2401 25.61 60.5388 25.386 60.9334C25.1727 61.3174 25.066 61.7761 25.066 62.3094C25.066 62.8428 25.1727 63.3121 25.386 63.7174C25.61 64.1121 25.898 64.4161 26.25 64.6294C26.6127 64.8428 26.9967 64.9494 27.402 64.9494C27.818 64.9494 28.2073 64.8481 28.57 64.6454C28.9327 64.4321 29.2207 64.1334 29.434 63.7494C29.6473 63.3548 29.754 62.8854 29.754 62.3414ZM35.3338 56.8534C34.9391 56.8534 34.6084 56.7308 34.3418 56.4854C34.0858 56.2294 33.9578 55.9148 33.9578 55.5414C33.9578 55.1681 34.0858 54.8588 34.3418 54.6134C34.6084 54.3574 34.9391 54.2294 35.3338 54.2294C35.7284 54.2294 36.0538 54.3574 36.3098 54.6134C36.5764 54.8588 36.7098 55.1681 36.7098 55.5414C36.7098 55.9148 36.5764 56.2294 36.3098 56.4854C36.0538 56.7308 35.7284 56.8534 35.3338 56.8534ZM36.4378 57.9094V66.7734H34.1978V57.9094H36.4378ZM42.0429 66.9174C41.3175 66.9174 40.6669 66.7894 40.0909 66.5334C39.5149 66.2668 39.0562 65.9094 38.7149 65.4614C38.3842 65.0134 38.2029 64.5174 38.1709 63.9734H40.4269C40.4695 64.3148 40.6349 64.5974 40.9229 64.8214C41.2215 65.0454 41.5895 65.1574 42.0269 65.1574C42.4535 65.1574 42.7842 65.0721 43.0189 64.9014C43.2642 64.7308 43.3869 64.5121 43.3869 64.2454C43.3869 63.9574 43.2375 63.7441 42.9389 63.6054C42.6509 63.4561 42.1869 63.2961 41.5469 63.1254C40.8855 62.9654 40.3415 62.8001 39.9149 62.6294C39.4989 62.4588 39.1362 62.1974 38.8269 61.8454C38.5282 61.4934 38.3789 61.0188 38.3789 60.4214C38.3789 59.9308 38.5175 59.4828 38.7949 59.0774C39.0829 58.6721 39.4882 58.3521 40.0109 58.1174C40.5442 57.8828 41.1682 57.7654 41.8829 57.7654C42.9389 57.7654 43.7815 58.0321 44.4109 58.5654C45.0402 59.0881 45.3869 59.7974 45.4509 60.6934H43.3069C43.2749 60.3414 43.1255 60.0641 42.8589 59.8614C42.6029 59.6481 42.2562 59.5414 41.8189 59.5414C41.4135 59.5414 41.0989 59.6161 40.8749 59.7654C40.6615 59.9148 40.5549 60.1228 40.5549 60.3894C40.5549 60.6881 40.7042 60.9174 41.0029 61.0774C41.3015 61.2268 41.7655 61.3814 42.3949 61.5414C43.0349 61.7014 43.5629 61.8668 43.9789 62.0374C44.3949 62.2081 44.7522 62.4748 45.0509 62.8374C45.3602 63.1894 45.5202 63.6588 45.5309 64.2454C45.5309 64.7574 45.3869 65.2161 45.0989 65.6214C44.8215 66.0268 44.4162 66.3468 43.8829 66.5814C43.3602 66.8054 42.7469 66.9174 42.0429 66.9174ZM55.6096 62.1494C55.6096 62.4694 55.5883 62.7574 55.5456 63.0134H49.0656C49.119 63.6534 49.343 64.1548 49.7376 64.5174C50.1323 64.8801 50.6176 65.0614 51.1936 65.0614C52.0256 65.0614 52.6176 64.7041 52.9696 63.9894H55.3856C55.1296 64.8428 54.639 65.5468 53.9136 66.1014C53.1883 66.6454 52.2976 66.9174 51.2416 66.9174C50.3883 66.9174 49.6203 66.7308 48.9376 66.3574C48.2656 65.9734 47.7376 65.4348 47.3536 64.7414C46.9803 64.0481 46.7936 63.2481 46.7936 62.3414C46.7936 61.4241 46.9803 60.6188 47.3536 59.9254C47.727 59.2321 48.2496 58.6988 48.9216 58.3254C49.5936 57.9521 50.367 57.7654 51.2416 57.7654C52.0843 57.7654 52.8363 57.9468 53.4976 58.3094C54.1696 58.6721 54.687 59.1894 55.0496 59.8614C55.423 60.5228 55.6096 61.2854 55.6096 62.1494ZM53.2896 61.5094C53.279 60.9334 53.071 60.4748 52.6656 60.1334C52.2603 59.7814 51.7643 59.6054 51.1776 59.6054C50.623 59.6054 50.1536 59.7761 49.7696 60.1174C49.3963 60.4481 49.167 60.9121 49.0816 61.5094H53.2896ZM60.4811 62.3094C60.4811 61.4134 60.6571 60.6188 61.0091 59.9254C61.3718 59.2321 61.8571 58.6988 62.4651 58.3254C63.0838 57.9521 63.7718 57.7654 64.5291 57.7654C65.1905 57.7654 65.7665 57.8988 66.2571 58.1654C66.7585 58.4321 67.1585 58.7681 67.4571 59.1734V57.9094H69.7131V66.7734H67.4571V65.4774C67.1691 65.8934 66.7691 66.2401 66.2571 66.5174C65.7558 66.7841 65.1745 66.9174 64.5131 66.9174C63.7665 66.9174 63.0838 66.7254 62.4651 66.3414C61.8571 65.9574 61.3718 65.4188 61.0091 64.7254C60.6571 64.0214 60.4811 63.2161 60.4811 62.3094ZM67.4571 62.3414C67.4571 61.7974 67.3505 61.3334 67.1371 60.9494C66.9238 60.5548 66.6358 60.2561 66.2731 60.0534C65.9105 59.8401 65.5211 59.7334 65.1051 59.7334C64.6891 59.7334 64.3051 59.8348 63.9531 60.0374C63.6011 60.2401 63.3131 60.5388 63.0891 60.9334C62.8758 61.3174 62.7691 61.7761 62.7691 62.3094C62.7691 62.8428 62.8758 63.3121 63.0891 63.7174C63.3131 64.1121 63.6011 64.4161 63.9531 64.6294C64.3158 64.8428 64.6998 64.9494 65.1051 64.9494C65.5211 64.9494 65.9105 64.8481 66.2731 64.6454C66.6358 64.4321 66.9238 64.1334 67.1371 63.7494C67.3505 63.3548 67.4571 62.8854 67.4571 62.3414ZM12.528 86.3414C12.528 85.4241 12.7147 84.6241 13.088 83.9414C13.4613 83.2481 13.9787 82.7148 14.64 82.3414C15.3013 81.9574 16.0587 81.7654 16.912 81.7654C18.0107 81.7654 18.9173 82.0428 19.632 82.5974C20.3573 83.1414 20.8427 83.9094 21.088 84.9014H18.672C18.544 84.5174 18.3253 84.2188 18.016 84.0054C17.7173 83.7814 17.344 83.6694 16.896 83.6694C16.256 83.6694 15.7493 83.9041 15.376 84.3734C15.0027 84.8321 14.816 85.4881 14.816 86.3414C14.816 87.1841 15.0027 87.8401 15.376 88.3094C15.7493 88.7681 16.256 88.9974 16.896 88.9974C17.8027 88.9974 18.3947 88.5921 18.672 87.7814H21.088C20.8427 88.7414 20.3573 89.5041 19.632 90.0694C18.9067 90.6348 18 90.9174 16.912 90.9174C16.0587 90.9174 15.3013 90.7308 14.64 90.3574C13.9787 89.9734 13.4613 89.4401 13.088 88.7574C12.7147 88.0641 12.528 87.2588 12.528 86.3414ZM26.665 90.9174C25.8117 90.9174 25.0437 90.7308 24.361 90.3574C23.6783 89.9734 23.1397 89.4348 22.745 88.7414C22.361 88.0481 22.169 87.2481 22.169 86.3414C22.169 85.4348 22.3663 84.6348 22.761 83.9414C23.1663 83.2481 23.7157 82.7148 24.409 82.3414C25.1023 81.9574 25.8757 81.7654 26.729 81.7654C27.5823 81.7654 28.3557 81.9574 29.049 82.3414C29.7423 82.7148 30.2863 83.2481 30.681 83.9414C31.0863 84.6348 31.289 85.4348 31.289 86.3414C31.289 87.2481 31.081 88.0481 30.665 88.7414C30.2597 89.4348 29.705 89.9734 29.001 90.3574C28.3077 90.7308 27.529 90.9174 26.665 90.9174ZM26.665 88.9654C27.0703 88.9654 27.449 88.8694 27.801 88.6774C28.1637 88.4748 28.4517 88.1761 28.665 87.7814C28.8783 87.3868 28.985 86.9068 28.985 86.3414C28.985 85.4988 28.761 84.8534 28.313 84.4054C27.8757 83.9468 27.337 83.7174 26.697 83.7174C26.057 83.7174 25.5183 83.9468 25.081 84.4054C24.6543 84.8534 24.441 85.4988 24.441 86.3414C24.441 87.1841 24.649 87.8348 25.065 88.2934C25.4917 88.7414 26.025 88.9654 26.665 88.9654ZM43.9401 81.7814C45.0281 81.7814 45.9028 82.1174 46.5641 82.7894C47.2361 83.4508 47.5721 84.3788 47.5721 85.5734V90.7734H45.3321V85.8774C45.3321 85.1841 45.1561 84.6561 44.8041 84.2934C44.4521 83.9201 43.9721 83.7334 43.3641 83.7334C42.7561 83.7334 42.2708 83.9201 41.9081 84.2934C41.5561 84.6561 41.3801 85.1841 41.3801 85.8774V90.7734H39.1401V85.8774C39.1401 85.1841 38.9641 84.6561 38.6121 84.2934C38.2601 83.9201 37.7801 83.7334 37.1721 83.7334C36.5535 83.7334 36.0628 83.9201 35.7001 84.2934C35.3481 84.6561 35.1721 85.1841 35.1721 85.8774V90.7734H32.9321V81.9094H35.1721V82.9814C35.4601 82.6081 35.8281 82.3148 36.2761 82.1014C36.7348 81.8881 37.2361 81.7814 37.7801 81.7814C38.4735 81.7814 39.0921 81.9308 39.6361 82.2294C40.1801 82.5174 40.6015 82.9334 40.9001 83.4774C41.1881 82.9654 41.6041 82.5548 42.1481 82.2454C42.7028 81.9361 43.3001 81.7814 43.9401 81.7814ZM51.9378 83.1894C52.2258 82.7841 52.6204 82.4481 53.1218 82.1814C53.6338 81.9041 54.2151 81.7654 54.8658 81.7654C55.6231 81.7654 56.3058 81.9521 56.9138 82.3254C57.5324 82.6988 58.0178 83.2321 58.3698 83.9254C58.7324 84.6081 58.9138 85.4028 58.9138 86.3094C58.9138 87.2161 58.7324 88.0214 58.3698 88.7254C58.0178 89.4188 57.5324 89.9574 56.9138 90.3414C56.3058 90.7254 55.6231 90.9174 54.8658 90.9174C54.2151 90.9174 53.6391 90.7841 53.1378 90.5174C52.6471 90.2508 52.2471 89.9148 51.9378 89.5094V94.9974H49.6978V81.9094H51.9378V83.1894ZM56.6258 86.3094C56.6258 85.7761 56.5138 85.3174 56.2898 84.9334C56.0764 84.5388 55.7884 84.2401 55.4258 84.0374C55.0738 83.8348 54.6898 83.7334 54.2738 83.7334C53.8684 83.7334 53.4844 83.8401 53.1218 84.0534C52.7698 84.2561 52.4818 84.5548 52.2578 84.9494C52.0444 85.3441 51.9378 85.8081 51.9378 86.3414C51.9378 86.8748 52.0444 87.3388 52.2578 87.7334C52.4818 88.1281 52.7698 88.4321 53.1218 88.6454C53.4844 88.8481 53.8684 88.9494 54.2738 88.9494C54.6898 88.9494 55.0738 88.8428 55.4258 88.6294C55.7884 88.4161 56.0764 88.1121 56.2898 87.7174C56.5138 87.3228 56.6258 86.8534 56.6258 86.3094ZM62.7815 78.9334V90.7734H60.5415V78.9334H62.7815ZM64.4186 86.3094C64.4186 85.4134 64.5946 84.6188 64.9466 83.9254C65.3093 83.2321 65.7946 82.6988 66.4026 82.3254C67.0213 81.9521 67.7093 81.7654 68.4666 81.7654C69.128 81.7654 69.704 81.8988 70.1946 82.1654C70.696 82.4321 71.096 82.7681 71.3946 83.1734V81.9094H73.6506V90.7734H71.3946V89.4774C71.1066 89.8934 70.7066 90.2401 70.1946 90.5174C69.6933 90.7841 69.112 90.9174 68.4506 90.9174C67.704 90.9174 67.0213 90.7254 66.4026 90.3414C65.7946 89.9574 65.3093 89.4188 64.9466 88.7254C64.5946 88.0214 64.4186 87.2161 64.4186 86.3094ZM71.3946 86.3414C71.3946 85.7974 71.288 85.3334 71.0746 84.9494C70.8613 84.5548 70.5733 84.2561 70.2106 84.0534C69.848 83.8401 69.4586 83.7334 69.0426 83.7334C68.6266 83.7334 68.2426 83.8348 67.8906 84.0374C67.5386 84.2401 67.2506 84.5388 67.0266 84.9334C66.8133 85.3174 66.7066 85.7761 66.7066 86.3094C66.7066 86.8428 66.8133 87.3121 67.0266 87.7174C67.2506 88.1121 67.5386 88.4161 67.8906 88.6294C68.2533 88.8428 68.6373 88.9494 69.0426 88.9494C69.4586 88.9494 69.848 88.8481 70.2106 88.6454C70.5733 88.4321 70.8613 88.1334 71.0746 87.7494C71.288 87.3548 71.3946 86.8854 71.3946 86.3414ZM76.9744 80.8534C76.5797 80.8534 76.249 80.7308 75.9824 80.4854C75.7264 80.2294 75.5984 79.9148 75.5984 79.5414C75.5984 79.1681 75.7264 78.8588 75.9824 78.6134C76.249 78.3574 76.5797 78.2294 76.9744 78.2294C77.369 78.2294 77.6944 78.3574 77.9504 78.6134C78.217 78.8588 78.3504 79.1681 78.3504 79.5414C78.3504 79.9148 78.217 80.2294 77.9504 80.4854C77.6944 80.7308 77.369 80.8534 76.9744 80.8534ZM78.0784 81.9094V90.7734H75.8384V81.9094H78.0784ZM85.2035 81.7814C86.2595 81.7814 87.1128 82.1174 87.7635 82.7894C88.4142 83.4508 88.7395 84.3788 88.7395 85.5734V90.7734H86.4995V85.8774C86.4995 85.1734 86.3235 84.6348 85.9715 84.2614C85.6195 83.8774 85.1395 83.6854 84.5315 83.6854C83.9128 83.6854 83.4222 83.8774 83.0595 84.2614C82.7075 84.6348 82.5315 85.1734 82.5315 85.8774V90.7734H80.2915V81.9094H82.5315V83.0134C82.8302 82.6294 83.2088 82.3308 83.6675 82.1174C84.1368 81.8934 84.6488 81.7814 85.2035 81.7814ZM93.4776 83.7494V88.0374C93.4776 88.3361 93.547 88.5548 93.6856 88.6934C93.835 88.8214 94.0803 88.8854 94.4216 88.8854H95.4616V90.7734H94.0536C92.1656 90.7734 91.2216 89.8561 91.2216 88.0214V83.7494H90.1656V81.9094H91.2216V79.7174H93.4776V81.9094H95.4616V83.7494H93.4776Z" fill="black"/>
<path fill-rule="evenodd" clip-rule="evenodd" d="M119.444 53.7734C131.042 53.7734 140.444 44.3714 140.444 32.7734C140.444 21.1755 131.042 11.7734 119.444 11.7734C113.305 11.7734 107.782 14.4073 103.942 18.6066C102.187 20.5257 99.8684 21.9202 97.6515 23.2796C94.7114 25.0824 92.75 28.3259 92.75 32.0275C92.75 35.3959 94.3742 38.385 96.8821 40.2543C98.9663 41.8077 101.146 43.4082 102.72 45.477C106.556 50.5187 112.62 53.7734 119.444 53.7734Z" fill="#121212"/>
<circle cx="83.125" cy="32.3984" r="7.625" fill="#121212"/>
<circle cx="70.75" cy="32.5234" r="2.75" fill="#121212"/>
<g clip-path="url(#clip0_11007_4246)">
<path d="M121.3 26.4839C120.91 26.8739 120.91 27.5039 121.3 27.8939L125.17 31.7739L110 31.7739C109.45 31.7739 109 32.2239 109 32.7739C109 33.3239 109.45 33.7739 110 33.7739L125.17 33.7739L121.29 37.6539C120.9 38.0439 120.9 38.6739 121.29 39.0639C121.68 39.4539 122.31 39.4539 122.7 39.0639L128.3 33.4739C128.69 33.0839 128.69 32.4539 128.3 32.0639L122.71 26.4839C122.32 26.0939 121.68 26.0939 121.3 26.4839Z" fill="white"/>
</g>
<defs>
<clipPath id="clip0_11007_4246">
<rect width="24" height="24" fill="white" transform="translate(131 20.7734) rotate(90)"/>
</clipPath>
</defs>
</svg>
