<svg width="278" height="256" viewBox="0 0 278 256" fill="none" xmlns="http://www.w3.org/2000/svg">
<path fill-rule="evenodd" clip-rule="evenodd" d="M53.1328 218.63C53.176 203.871 53.4598 189.108 53.9578 174.358C54.3276 163.426 54.8014 152.486 55.7179 141.585C56.0808 137.266 56.503 132.944 57.1674 128.66C57.579 126.007 57.9572 123.117 59.0765 120.647C59.443 119.839 59.7968 119.313 60.5764 118.9C63.4594 117.37 67.4094 117.145 70.5878 116.822C75.7987 116.293 81.0731 116.14 86.3095 116.248C86.0025 121.88 85.6959 127.513 85.3893 133.144C85.1531 137.482 84.9167 141.82 84.6805 146.158C84.5316 148.896 84.1719 151.712 84.2286 154.454C84.2747 156.688 86.902 158.826 88.2374 160.571C89.8754 155.56 91.5135 150.549 93.1519 145.539C94.0179 147.775 94.9436 149.992 95.9506 152.168C96.615 153.603 97.2915 155.081 98.1724 156.4C98.9775 157.606 99.2132 157.776 100.612 157.57C102.296 157.323 103.575 156.823 104.571 158.075C105.453 159.185 106.275 160.317 107.232 161.37C117.806 173 134.101 180.222 149.199 183.49C158.092 185.414 167.063 186.976 175.952 188.938C189.524 191.934 203.465 194.888 216.428 200.008C218.459 200.811 220.513 201.673 222.366 202.84C224.41 204.127 225.87 206.075 227.284 208.003C230.74 212.715 234.791 220.443 229.461 225.361C225.375 229.131 218.991 229.51 213.683 229.934C208.197 230.373 202.691 230.587 197.19 230.765C182.208 231.252 167.213 231.358 152.224 231.372C138.529 231.382 124.833 231.305 111.14 231.043C104.929 230.924 98.9429 231.068 92.9325 229.474C80.631 226.212 68.3648 222.816 56.0936 219.444C55.1069 219.173 54.1198 218.901 53.1328 218.63Z" fill="#FFE700"/>
<path fill-rule="evenodd" clip-rule="evenodd" d="M178.137 89.6481C177.563 90.2453 178.494 90.7052 178.913 90.8356C178.846 90.2595 178.568 89.999 178.137 89.6481ZM99.3671 201.92C99.1455 201.398 98.815 200.968 98.2108 201.215C97.2118 201.622 99.2327 201.915 99.3671 201.92ZM186.224 117.743C186.637 117.795 188.326 117.689 187.804 116.77C187.199 115.705 186.367 117.414 186.224 117.743ZM155.938 108.32C156.826 107.559 157.622 106.396 157.631 105.187C156.794 105.742 156.347 107.461 155.938 108.32ZM177.229 93.0393C177.969 93.0767 177.292 92.0355 177.299 91.8281C177.315 91.3831 177.731 91.0009 177.663 90.4731C177.661 90.4516 176.915 88.7827 176.719 88.6766C176.166 88.3788 175.844 88.9248 175.347 89.0937C174.612 89.344 174.253 89.1231 173.464 89.2001C172.768 89.2681 172.182 89.6066 171.455 89.6063C171.282 89.6063 171.091 89.2401 170.893 89.2604C170.584 89.292 170.554 89.6862 170.336 89.7058C169.567 89.7741 169.523 89.469 168.806 89.1823C167.615 88.7057 166.779 89.8144 166.806 91.1248C166.841 92.8606 168.651 93.57 170.039 93.9689C171.828 94.483 172.822 94.7928 174.64 94.4692C175.165 94.3751 175.699 94.5425 176.114 94.18C176.672 93.6925 176.376 92.664 177.013 92.1889C177.085 92.4722 177.157 92.7559 177.229 93.0393ZM114.284 162.099C114.432 163.234 114.121 163.818 115.221 164.578C115.871 165.027 116.687 165.322 117.375 165.772C118.372 166.423 119.865 166.842 120.749 167.591C121.31 168.066 121.41 169.413 122.188 169.576C122.851 169.714 123.64 168.518 123.867 167.979C124.119 167.382 123.951 166.89 124.053 166.294C124.121 165.894 124.421 165.811 124.368 165.341C124.313 164.848 123.835 164.588 123.627 164.196C123.441 163.846 123.385 163.348 123.239 163.072C122.895 162.42 122.132 161.036 121.452 160.605C120.878 162.11 120.444 160.585 119.649 160.144C119.353 160.136 119.056 160.133 118.759 160.136C118.606 159.989 118.449 159.846 118.29 159.706C117.924 159.672 117.32 159.867 116.99 159.969C116.808 159.928 116.624 159.904 116.437 159.897C116.189 159.969 116.091 160.107 116.143 160.311C116.251 160.261 115.652 160.624 115.595 160.663C114.414 161.466 113.329 161.787 113.11 163.494C113.502 163.03 113.893 162.564 114.284 162.099ZM123.5 101.121C122.237 97.8466 122.638 94.9614 122.76 91.5339C122.789 90.7292 122.96 89.0029 122.119 88.4688C121.07 87.8029 120.196 89.3091 119.648 89.9325C118.707 91.0024 117.394 91.9847 116.912 93.3731C116.486 94.5981 116.925 96.101 117.25 97.3147C117.6 98.6226 118.033 100.381 119.224 101.105C120.495 101.879 122.219 101.803 123.5 101.121ZM168.04 170.764C167.858 168.254 164.367 169.134 162.798 169.908C161.624 170.486 160.967 171.369 160.228 172.418C159.388 173.609 159.113 173.942 159.18 175.358C159.242 176.65 159.17 177.949 159.493 179.235C159.658 179.887 159.694 180.002 160.127 180.452C160.126 180.451 160.877 181.199 160.668 181.079C161.637 181.632 163.081 181.725 164.219 181.81C165.845 181.932 166.237 181.955 166.897 180.409C167.024 180.678 167.151 180.947 167.277 181.216C167.318 181.026 167.77 178.768 167.665 178.79C167.483 178.829 167.287 179.355 167.198 179.488C167.255 178.448 167.995 177.671 168.354 176.743C168.684 175.891 168.819 174.925 169.074 174.043C169.32 173.189 169.596 172.002 169.358 171.116C169.041 169.939 168.941 170.274 168.04 170.764ZM189.115 115.438C189.683 115.973 189.177 116.837 189.251 117.499C190.022 117.026 189.754 116.773 190.053 116.004C190.245 115.509 190.812 114.561 191.307 115.373C191.515 115.714 190.827 116.182 191.293 116.383C191.566 116.501 192.295 115.584 192.429 115.44C193.347 114.445 193.935 113.428 194.011 112.072C194.032 111.7 194.027 110.774 193.895 110.561C193.513 109.945 192.497 110.309 192.584 109.184C192.989 109.385 193.393 109.586 193.797 109.788C193.923 108.522 192.558 107.774 191.987 106.77C191.337 105.626 190.914 104.793 189.855 103.809C189.366 103.355 188.571 102.418 187.935 102.2C187.442 102.03 187.242 102.281 186.744 102.286C185.702 102.295 184.137 102.014 185.688 103.169C185.373 103.317 184.959 103.409 184.69 103.642C184.491 103.814 184.417 104.307 184.184 104.425C183.68 104.68 183.303 104.183 182.735 104.748C182.136 105.344 182.749 105.719 182.616 105.981C182.232 106.736 181.705 106.36 181.722 107.511C181.75 109.407 182.842 111.652 183.43 113.424C183.775 114.465 184.161 116.094 185.618 115.667C185.563 116.168 185.436 116.654 185.762 117.102C186.066 116.744 186.175 115.958 186.38 115.538C186.682 114.919 187.174 114.321 187.521 113.719C187.47 114.671 187.367 114.935 186.721 115.655C187.571 115.76 188.62 116.441 189.115 115.438ZM126.864 142.997C127.644 142.406 126.619 141.747 128.159 142.082C128.552 142.168 128.157 142.627 128.75 142.644C128.974 142.65 129.523 142.099 129.678 141.97C129.82 141.852 130.458 140.992 130.56 140.936C130.389 141.028 131.335 140.662 131.039 140.9C131.603 140.446 132.032 139.7 132.285 138.793C132.906 136.569 132.818 133.912 131.53 132.002C130.99 131.201 130.559 130.224 129.746 129.687C128.643 128.958 126.819 128.525 125.587 128.062L125.985 127.091C122.603 128.62 120.27 132.19 119.985 135.816C119.882 137.121 119.511 138.777 120.305 139.933C121.134 141.141 123.225 142.41 124.379 141.069C124.204 141.816 124.719 142.71 125.509 142.901C125.807 142.974 126.089 142.757 126.221 142.776C126.389 142.8 126.744 143.021 126.864 142.997ZM95.8106 67.2859C93.5376 67.0153 93.89 71.1211 94.3164 72.3541C94.6601 73.3487 95.892 74.7328 96.5437 75.5992C97.3204 76.6313 98.3565 77.4018 99.4583 78.0605C99.8361 78.2861 100.113 78.3584 100.438 78.4844C100.554 78.3693 100.693 78.3093 100.854 78.3042C100.996 78.5411 101.198 78.7184 101.458 78.8357C102.284 79.0929 103.652 79.0537 104.473 79.0192C105.797 78.9632 107.343 78.2014 108.66 77.9475C109.275 77.8287 109.618 77.7807 110.162 77.4611C110.436 77.3001 110.973 76.0595 111.05 77.278C111.389 77.0691 111.282 76.7254 111.53 76.5725C111.767 76.4264 112.524 76.2859 112.807 75.9643C113.201 75.5161 113.724 74.4934 113.998 73.8809C114.174 73.4879 114.548 72.475 114.518 72.066C114.456 71.1995 114.176 71.399 113.436 71.0401C112.941 70.8003 112.656 70.5994 112.162 70.4668C112.105 70.4516 111.967 70.7469 111.87 70.7215C111.701 70.6775 111.632 70.4821 111.513 70.4439C110.61 70.1511 109.544 69.2832 108.428 69.3672C107.946 69.4035 107.494 70.138 107.246 70.1006C106.866 70.0429 107.056 69.2611 106.79 68.9777C106.113 68.2562 103.852 68.3729 102.975 68.2479C100.589 67.9079 98.2006 67.5907 95.8106 67.2859ZM175.434 129.693C175.652 127.989 175.92 126.298 174.052 125.459C173.351 125.145 172.767 125.258 172.048 125.173C171.114 125.062 171.25 124.66 170.557 125.662C170.174 125.17 170.429 125.01 169.801 124.951C169.542 124.927 168.412 125.663 168.118 125.783C166.892 126.285 165.331 126.238 164.406 127.25C163.507 128.233 162.78 129.178 162.401 130.52C162.21 131.196 162.084 131.896 161.848 132.559C161.593 133.277 161.019 133.895 160.822 134.612C160.022 137.533 163.424 140.199 165.813 140.974C166.121 140.911 166.423 140.931 166.719 141.033C166.928 141.171 167.114 141.333 167.28 141.52C168.032 141.756 168.211 141.678 168.976 141.333C170.237 140.765 171.711 140.571 172.665 141.901C172.96 140.353 174.035 141.274 174.552 140.277C174.837 139.727 174.214 138.204 174.575 137.807C175.189 137.134 177.102 138.331 177.053 136.759C177.035 136.186 176.384 135.996 176.158 135.544C175.753 134.731 175.978 133.871 176.541 133.156C176.594 133.28 176.798 134.089 177.068 133.875C177.783 133.306 176.607 132.409 176.35 132.099C175.926 131.587 175.541 131.196 175.636 130.481C175.694 130.038 176.405 129.577 176.38 129.146C176.36 128.818 175.482 129.655 175.434 129.693ZM142.194 148.084C142.243 149.278 141.48 149.434 140.977 150.255C140.841 150.479 140.832 151.015 140.641 151.343C140.284 151.958 140.036 151.996 139.921 152.595C139.934 152.528 140.112 153.189 140.117 153.264C140.166 154.107 139.58 154.781 139.741 155.707C139.967 157.011 140.958 158.463 141.657 159.548C143.236 161.999 145.444 163.899 148.468 164.073C150.488 164.189 155.24 163.381 155.673 161.269C155.559 161.024 155.462 160.772 155.383 160.513C155.337 160.138 155.476 159.882 155.801 159.745C156.05 159.679 156.245 159.54 156.386 159.329C156.317 159.114 156.205 158.925 156.048 158.762C156.104 158.48 156.581 158.466 156.573 158.284C156.559 157.944 156.26 157.094 156.18 156.707C156.042 156.038 155.966 155.402 155.844 154.729C155.745 154.185 155.411 153.916 155.326 153.417C155.267 153.077 155.613 152.768 155.583 152.407C155.356 152.203 155.171 151.965 155.029 151.694C155.013 151.412 155.083 151.15 155.237 150.91C154.898 148.535 151.538 146.54 149.147 146.486C147.863 146.456 145.67 146.364 144.515 147.035C143.743 147.483 143.226 149.073 142.194 148.084ZM90.6415 231.789C88.9533 231.028 87.4413 230.218 85.6333 229.848C84.3284 229.581 83.208 228.848 81.8966 228.609C78.9914 228.079 75.8538 227.591 73.0674 226.572C70.0798 225.479 66.8262 225.088 63.7641 224.18C62.2565 223.733 60.9407 223.439 59.3815 223.353C57.8623 223.269 56.3005 222.422 54.782 222.565C53.5127 222.685 52.6074 223.66 51.6142 224.355C50.3264 225.256 48.9219 226.033 47.5378 226.778C46.0691 227.568 44.4328 227.964 42.9834 228.734C41.7798 229.374 40.5977 229.998 39.3567 230.584C32.7635 233.7 26.397 236.61 20.4512 240.945C22.3686 241.528 24.5497 240.946 26.4551 240.741C29.1634 240.448 31.8619 240.228 34.5432 239.726C36.1123 239.433 39.1747 238.314 40.6729 239.174C41.9894 239.93 41.8884 241.87 42.0773 243.167C43.3201 242.688 44.5574 242.196 45.8111 241.746C46.7971 241.391 48.397 240.417 49.4018 240.383C52.2009 240.288 51.895 244.217 51.6225 246.019C53.258 245.464 54.8132 245.076 56.3986 244.388C57.6694 243.836 59.0727 243.715 60.3071 243.057C63.3743 241.422 66.7775 240.397 70.0616 239.237C73.7667 237.927 77.4638 236.593 81.1373 235.196C82.6471 234.622 84.1362 233.864 85.6809 233.398C87.344 232.896 89.0467 232.519 90.6415 231.789ZM127.199 82.0086C126.964 84.2181 127.206 86.4461 127.274 88.6581C127.353 91.2483 127.356 93.8109 127.691 96.3858C128.297 101.031 129.149 105.677 130.812 110.073C132.326 114.076 134.881 116.907 139.209 117.772C143.096 118.549 146.885 117.216 149.36 114.11C151.926 110.889 152.715 106.82 154.218 103.087C154.952 101.261 155.497 99.4258 156.109 97.5578C156.477 96.4389 158.299 93.2267 157.778 92.0773C157.269 90.9551 154.266 90.5715 153.226 89.9478C151.574 88.9564 150.047 86.9689 148.786 85.5165C147.941 84.5432 147.448 83.8236 146.879 85.3675C146.194 87.2228 146.69 89.3662 146.051 91.1658C145.422 92.9354 144.05 91.1898 143.909 90.0364C143.638 87.8218 143.964 85.3061 144.068 83.0803C144.263 78.9324 144.535 74.1349 148.276 71.5774C151.821 69.1535 155.668 68.3994 157.636 64.2147C158.425 62.5371 159.353 60.7796 158.86 58.9025C158.29 56.7362 157.447 54.4708 156.618 52.3888C155.024 48.3906 152.529 44.9092 150.348 41.2383C150.053 40.7431 149.991 40.1085 149.347 39.9686C148.619 39.8102 146.92 41.0487 146.214 41.2485C144.292 41.7919 142.574 40.6643 140.879 41.9405C139.518 42.965 138.364 44.4392 136.528 44.5463C135.737 44.5925 134.665 43.8866 133.983 44.0552C133.116 44.2699 132.865 45.565 132.53 46.2926C131.762 47.9623 130.904 50.0544 129.637 51.4192C129.207 51.8824 128.447 52.0256 128.08 52.4568C127.652 52.9577 127.89 53.9749 127.277 54.0661C126.922 54.1188 126.639 53.6374 126.34 53.5226C125.833 53.3272 125.335 53.2898 124.792 53.3058C123.787 53.3352 122.745 53.5779 121.862 54.0588C119.808 55.177 119.049 56.8775 121.517 57.9002C122.506 58.3103 123.581 58.6155 124.651 58.7107C125.825 58.8149 127.014 58.4484 128.175 58.5915C130.415 58.8672 131.103 60.7403 131.683 62.665C132.48 65.3126 133.124 67.9932 134.019 70.6132C134.751 72.7537 136.079 74.9294 136.463 77.1654C136.699 78.5389 136.39 78.4365 135.473 79.2858C134.774 79.9325 134.354 80.7814 133.598 81.4303C131.488 83.2391 129.649 82.757 127.199 82.0086ZM263.384 210.604C263.32 210.132 253.319 211.034 252.183 210.918C250.241 210.718 248.175 211.249 246.168 211.181C244.393 211.121 241.834 210.432 240.369 211.293C239.826 211.612 239.813 211.99 238.955 211.827C238.159 211.676 237.32 211.113 236.723 210.591C235.063 209.138 234.049 206.853 232.963 204.97C230.791 201.2 228.93 197.294 227.127 193.33C223.412 185.166 219.838 176.954 216.128 168.788C214.292 164.748 212.523 160.702 210.543 156.737C209.699 155.045 208.771 153.189 208.121 151.417C207.412 149.484 206.48 147.669 205.845 145.687C204.498 141.49 202.889 137.356 201.858 133.04C201.597 131.947 201.5 130.803 201.185 129.726C200.849 128.575 200.164 127.591 199.734 126.478C199.296 125.343 199.295 124.33 199.077 123.17C198.859 122.014 198.328 120.887 197.946 119.78C195.976 120.967 193.734 122.048 191.921 123.459C190.139 124.848 187.538 126.011 188.284 128.522C188.962 130.806 190.164 132.905 190.879 135.186C191.681 137.745 192.667 140.246 193.441 142.81C195.102 148.316 196.556 153.886 198.044 159.441C198.743 162.051 199.616 164.666 200.128 167.32C200.395 168.701 200.351 169.936 200.853 171.273C201.344 172.581 201.809 173.86 202.212 175.199C202.929 177.581 203.613 179.969 204.407 182.327C204.836 183.603 205.179 184.894 205.484 186.205C205.669 186.997 206.298 188.521 206.121 189.342C205.613 191.704 202.489 189.297 201.742 188.333C200.007 186.096 198.763 183.36 197.464 180.856C192.248 170.801 189.683 159.956 186.993 149.011C186.287 146.133 185.604 143.281 184.809 140.434C183.977 137.45 183.734 134.33 182.752 131.363C181.736 128.297 180.701 125.342 179.955 122.188C179.61 120.727 179.245 119.268 178.939 117.799C178.776 117.015 178.769 115.572 177.724 115.416C178.397 120.338 178.645 126.104 180.607 130.72C182.385 134.906 183.798 140.642 182 145.087C181.136 147.224 179.769 149.05 178.74 151.086C177.591 153.363 176.842 155.976 176.071 158.402C174.476 163.426 174.005 168.709 172.937 173.848C172.377 176.541 172.366 178.383 172.852 181.033C173.008 181.887 172.733 182.565 173.451 183.112C174.174 183.662 175.846 183.773 176.739 184.089C179.451 185.048 181.783 185.751 184.654 186.065C187.367 186.363 189.914 186.901 192.498 187.79C197.154 189.391 201.995 190.588 206.57 192.193C209.072 193.071 211.486 194.635 213.891 195.757C216.393 196.924 219.048 197.686 221.407 199.143C223.948 200.712 226.461 202.534 228.869 204.292C231.099 205.921 232.168 207.946 233.097 210.481C234.862 215.301 239.313 221.555 235.202 226.418C236.643 227.044 238.292 227.293 239.673 227.962C240.15 228.194 240.292 228.419 240.834 228.552C241.542 228.726 242.455 228.587 243.18 228.634C244.23 228.703 246.443 229.458 247.466 229.153C248.423 228.867 248.465 227.479 249.152 226.794C250.172 225.778 251.15 226.433 252.397 226.32C254.244 226.153 256.085 225.91 257.933 225.749C261.663 225.424 265.382 225.347 269.123 225.356C267.175 223.194 260.012 227.129 259.836 223.213C259.632 218.681 265.163 220.041 267.852 218.734C265.408 218.805 262.964 218.829 260.525 219.023C259.045 219.14 256.2 219.849 255.363 218.222C254.463 216.474 255.91 214.451 257.266 213.537C259.142 212.274 261.309 211.468 263.384 210.604ZM59.5559 150.181C59.1076 151.075 59.8018 151.435 60.1164 152.155C60.5509 153.151 60.1219 152.953 60.0347 153.889C59.9762 154.517 60.1477 154.814 60.1121 155.402C60.0972 155.652 59.7412 155.985 59.6994 156.269C59.6242 156.781 59.9006 157.016 59.8705 157.387C59.8556 157.571 60.0939 157.604 60.0452 157.871C60.0031 158.104 59.4669 158.268 59.4353 158.414C59.2536 159.263 59.7626 158.838 59.8403 159.241C59.9704 159.912 59.5926 160.028 59.3775 160.646C59.0066 161.711 59.3652 162.208 59.5944 163.207C59.7884 164.049 59.5003 164.055 59.3909 164.86C59.3245 165.348 59.4654 165.407 59.4632 165.861C59.4567 167.428 59.1061 169.058 59.0916 170.718C59.0571 174.648 58.7243 178.521 58.6746 182.442C58.6255 186.294 58.3451 190.194 58.1765 194.095C58.0944 195.996 57.9015 197.892 57.8183 199.794C57.7213 202.003 57.9375 204.201 57.7515 206.401C57.5825 208.401 57.6839 210.407 57.6011 212.412C57.5622 213.364 57.0725 216.243 57.6973 216.883C58.5089 217.713 61.7973 216.829 62.861 216.887C64.8605 216.997 66.9686 217.399 68.9278 217.812C73.5709 218.79 78.2245 220.035 82.8695 220.912C86.7424 221.644 90.3759 223.504 93.9808 225.079C93.6506 221.767 93.0675 218.536 92.9596 215.198C92.863 212.198 93.1456 209.214 93.0791 206.218C92.9371 199.825 92.5749 193.503 92.7176 187.111C92.8633 180.611 93.3872 173.974 94.2921 167.536C94.7081 164.578 95.0325 161.426 96.0907 158.616C96.5702 157.342 97.3509 156.409 97.0269 155.008C96.6756 153.491 95.9817 151.905 95.4688 150.433C95.0917 152.83 93.7628 168.797 88.3034 163.997C86.1717 162.123 85.1846 158.062 84.708 155.402C84.0643 151.805 84.2953 148.024 84.312 144.385C84.3455 136.969 85.161 129.404 85.909 122.029C86.0583 120.556 86.8023 119.238 84.9126 119.309C83.1408 119.375 81.3201 119.795 79.5581 120.002C78.0331 120.18 76.5019 119.745 75.0487 119.94C74.3825 120.029 73.7932 120.424 73.1204 120.524C72.2715 120.65 71.3843 120.465 70.5295 120.466C69.0891 120.468 67.4191 120.46 66.2235 121.357C64.9677 122.298 63.8909 123.856 63.4692 125.362C63.0477 126.868 63.1604 128.564 62.8937 130.069C62.6688 131.337 62.6209 132.902 62.4105 134.342C61.4991 133.2 61.5576 134.849 61.5478 135.336C61.5365 135.924 60.9033 137.115 61.0664 137.46C61.1718 137.683 61.8794 137.565 61.9394 137.74C62.0625 138.099 61.6364 138.251 61.6288 138.52C61.5986 139.568 61.6586 140.651 61.656 141.707C61.409 141.518 61.1612 141.329 60.9138 141.14C60.7838 141.423 60.7427 141.791 60.6188 142.077C60.5629 142.207 60.0405 142.171 60.0158 142.427C59.9835 142.76 60.7144 143.404 60.8553 143.768C61.1078 144.42 61.2688 144.163 60.8408 144.865C60.3482 145.674 59.5417 145.719 59.6707 146.895C59.9315 146.696 60.1589 146.463 60.3536 146.198C60.4757 146.9 60.1706 147.519 60.1335 148.218C60.1092 148.675 60.6653 150.499 60.2461 150.804C60.0699 150.933 59.5988 150.231 59.5559 150.181ZM96.3904 92.6346C96.3937 91.095 94.1461 88.7271 93.373 87.4386C92.14 85.3828 90.8141 83.5217 89.2465 81.7049C87.6717 79.8798 85.9904 78.14 84.4632 76.2749C83.8311 75.5037 83.3621 74.6028 82.7176 73.8475C81.9122 72.9044 81.7422 73.1943 80.7446 73.2194C79.9861 73.2386 79.4913 73.1097 78.7902 73.3349C78.4178 73.4544 78.1766 73.6321 77.7766 73.7421C77.5263 73.8115 77.1961 73.5685 76.8601 73.6858C76.0289 73.9754 75.7462 74.7165 74.7432 74.7012C74.623 74.6994 74.2379 74.4142 74.1823 74.4302C74.1144 74.4498 73.8027 74.6878 73.8136 74.6852C73.7467 74.7005 73.766 75.1724 73.588 75.2541C73.2836 75.3944 73.0678 74.9243 72.7906 74.9548C72.0902 75.0318 71.5692 75.7547 70.7943 75.9298C69.799 76.1547 68.938 75.8267 67.9873 76.2898C67.2277 76.6597 66.8437 77.501 66.2119 76.6313C65.6397 77.8461 64.5866 77.4781 63.5345 77.99C62.0676 78.7038 60.4775 79.0657 58.9154 79.6048C55.7015 80.7139 52.465 81.8502 49.3321 83.1853C42.8333 85.9549 36.5398 89.0261 30.1864 92.0036C23.9728 94.9156 18.2257 98.7769 12.6337 102.664C9.89207 104.569 7.16637 106.571 5.02773 109.181C4.37964 109.971 3.29742 111.199 3.73408 112.311C4.19618 113.488 6.14918 114.218 7.25355 114.443C8.70159 114.74 10.2935 114.839 11.7677 114.938C13.3592 115.044 15.0688 115.097 16.644 115.076C19.7486 115.033 22.7936 114.73 25.9128 114.661C29.4609 114.583 32.9394 113.835 36.4803 113.79C40.3728 113.742 44.2211 113.254 48.1194 113.406C55.6335 113.7 63.1411 113.917 70.6774 113.953C71.615 113.958 72.5345 113.845 73.4554 114.008C74.2027 114.14 74.7425 114.402 75.5439 114.345C76.2904 114.291 76.9825 113.965 77.7432 113.925C78.7422 113.873 79.7656 114.038 80.7697 114.017C84.1598 113.948 88.1806 113.64 91.4487 114.712C92.7467 115.138 94.3786 116.378 93.5873 117.986C92.8048 119.576 90.8061 118.28 89.5687 119.003C88.416 119.676 89.0554 121.513 89.1368 122.611C89.2905 124.692 89.3184 126.762 89.2636 128.847C89.1426 133.452 88.8621 138.051 88.8084 142.658C88.7826 144.895 88.8146 147.132 88.9326 149.366C89.0369 151.339 88.9675 153.485 89.6417 155.367C90.5808 153.017 90.6953 150.423 91.0676 147.946C91.4709 145.267 91.865 142.588 92.2483 139.905C92.4761 138.312 92.7126 128.743 95.8306 129.993C99.1452 131.321 97.9929 138.683 98.1433 141.33C98.2853 143.828 98.5407 146.317 99.1067 148.758C99.37 149.892 100.094 154.71 101.548 155.022C102.615 149.98 103.743 144.946 104.528 139.85C104.874 137.6 105.179 135.334 105.317 133.061C105.389 131.878 105.302 129.035 107.012 128.897C112.038 128.492 108.666 149.67 112.422 152.334C113.811 149.571 114.354 146.689 114.731 143.625C114.903 142.231 115.27 140.661 115.053 139.262C114.768 137.432 114.46 136.31 114.842 134.42C115.154 132.872 115.379 131.282 115.74 129.748C116.001 128.642 116.68 128.102 117.039 127.105C118.049 124.297 117.984 120.743 118.387 117.795C118.795 114.81 119.225 111.876 118.696 108.865C118.173 105.882 115.991 104.934 113.511 103.703C111.012 102.463 108.601 101.1 105.857 100.553C102.775 99.9387 99.9477 99.3429 96.7937 99.1798C91.2275 98.8925 85.7724 99.226 80.2313 99.4897C74.0701 99.7832 67.9026 99.4174 61.7446 99.3328C58.7512 99.2917 55.7015 99.234 52.7131 99.2826C51.2157 99.3073 49.7629 99.5671 48.2557 99.5293C46.9715 99.4973 44.4612 99.8933 43.3372 99.2103C42.4551 98.6745 42.4562 97.4873 43.201 96.833C43.9388 96.1846 45.3857 96.1504 46.307 95.9502C49.2514 95.3112 52.1864 94.9443 55.1518 94.4314C56.8596 94.136 58.2924 94.0379 60.0038 94.1211C61.6658 94.2025 63.3609 93.7273 65.0414 93.6467C68.6027 93.4767 72.1846 93.3081 75.7477 93.2525C82.6529 93.145 89.4786 92.6179 96.3904 92.6346ZM99.9938 160.178C99.4384 160.392 99.5797 163.046 99.5292 163.576C99.3791 165.163 99.2146 166.748 99.0733 168.336C98.747 172.002 98.5014 175.676 98.3009 179.351C98.1007 183.025 97.8632 186.712 97.8752 190.394C97.8806 191.961 97.9507 193.527 97.9191 195.094C97.8955 196.265 97.38 198.457 98.3798 199.29C99.0504 199.848 100.364 199.597 101.148 199.545C102.696 199.444 104.248 199.34 105.8 199.328C107.594 199.315 109.374 199.508 111.169 199.461C111.857 199.443 112.626 199.328 113.307 199.458C113.801 199.553 114.34 199.978 114.803 199.997C115.144 200.011 115.584 199.673 115.961 199.606C116.547 199.502 117.235 199.622 117.832 199.615C118.256 199.61 119.279 199.418 119.669 199.669C120.05 199.913 119.903 200.469 120.251 200.592C120.383 200.639 121.138 199.743 121.268 199.686C121.846 199.434 122.688 199.63 123.298 199.637C125.051 199.657 126.807 199.546 128.561 199.562C130.271 199.578 131.921 199.777 133.563 199.976C134.648 200.108 135.895 199.778 137.047 199.682C138.889 199.527 140.739 199.556 142.586 199.593C143.513 199.611 144.441 199.626 145.368 199.649C145.588 199.654 146.022 199.569 146.234 199.632C147.085 199.888 146.545 199.902 147.146 200.291C146.358 199.781 148.911 199.449 149.058 199.448C150.217 199.439 151.279 200.009 152.243 199.897C153.288 199.776 154.355 199.131 155.504 199.331C156.042 199.425 156.488 200.026 156.887 200.095C157.532 200.206 157.753 199.74 158.344 199.507C159.525 199.041 160.895 199.447 162.128 199.366C163.858 199.253 165.524 199.249 167.261 199.226C170.43 199.184 173.598 199.132 176.767 199.163C179.686 199.191 182.03 200.361 184.933 200.298C186.455 200.265 188.003 200.132 189.523 200.168C190.828 200.199 191.495 201.172 190.508 202.315C189.841 203.088 188.616 203.169 187.675 203.311C186.279 203.521 184.908 203.823 183.517 204.057C180.208 204.611 176.746 204.594 173.399 204.695C159.751 205.105 146.1 206.319 132.444 206.447C126.447 206.503 120.387 207.008 114.409 206.773C111.075 206.641 107.815 207.358 104.455 206.843C103.038 206.626 101.645 206.494 100.217 206.392C100.031 206.379 98.9396 206.168 98.7336 206.261C98.1251 206.539 98.4648 206.285 98.2094 206.989C97.7905 208.145 97.9652 209.989 97.9674 211.219C97.9718 213.181 98.0673 215.146 98.1331 217.106C98.1967 218.985 98.3009 220.861 98.4128 222.738C98.4589 223.514 98.1534 226.433 98.7521 227.012C99.2153 227.46 101.382 227.248 101.969 227.122C102.672 226.972 102.738 226.935 103.499 227.024C104.061 227.09 104.261 227.074 104.823 227.013C106.433 226.839 108.278 226.809 109.895 227.1C111.149 227.325 112.467 226.73 112.948 228.049C113.76 227.056 113.741 227.628 114.633 227.828C115.552 228.033 115.271 227.44 116.05 227.358C116.599 227.3 117.088 227.734 117.682 227.738C118.662 227.744 119.545 227.485 120.593 227.616C125.222 228.194 129.916 228.713 134.584 228.756C136.521 228.774 138.434 228.804 140.361 228.863C141.343 228.892 142.272 228.995 143.239 229.111C144.15 229.22 144.865 229.001 145.812 228.953C147.906 228.847 150.102 229.165 152.196 229.28C153.18 229.334 154.413 229.164 155.357 229.294C156.306 229.423 156.378 230.144 157.133 230.562C157.252 228.224 162.142 229.721 163.415 229.724C163.915 229.726 164.525 229.513 165.129 229.551C166.127 229.616 167.133 229.632 168.133 229.667C169.728 229.723 171.269 229.82 172.784 229.626C174.763 229.374 176.913 229.643 178.912 229.631C181.089 229.617 183.266 229.588 185.442 229.516C187.646 229.444 189.846 229.309 192.05 229.239C193.965 229.177 195.996 229.331 197.883 229.191C198.373 229.155 198.84 228.796 199.278 228.777C199.884 228.752 200.563 229.012 201.263 228.952C203.468 228.764 205.523 228.733 207.752 228.741C211.576 228.754 215.549 228.048 219.215 227.035C220.905 226.568 222.662 226.543 224.34 226.042C226.277 225.464 228.051 224.456 229.833 223.523C231.23 222.792 233.192 222.452 232.624 220.604C232.017 218.631 231.048 216.718 230.326 214.78C229.698 213.095 229.298 211.453 227.937 210.186C226.592 208.933 224.874 208.092 223.442 206.937C220.319 204.42 217.059 202.915 213.361 201.425C209.634 199.922 206.234 197.706 202.318 196.707C198.682 195.78 195.18 194.536 191.617 193.585C187.72 192.545 183.7 192.168 179.769 191.243C176.002 190.357 172.303 189.053 168.485 188.378C164.355 187.649 160.187 187.273 156.072 186.382C152.583 185.627 149.255 184.148 145.748 183.558C144.724 183.386 143.616 183.281 142.625 182.959C141.698 182.658 141.034 182.048 140.097 181.801C137.933 181.231 136.053 180.454 134.005 179.527C133.143 179.138 132.666 178.659 131.919 178.176C131.029 177.6 129.889 177.395 128.889 177.078C126.964 176.466 125.047 175.865 123.32 174.792C121.529 173.679 119.885 172.422 118.237 171.122C117.539 170.571 116.793 170.019 116.078 169.504C115.196 168.87 114.292 168.755 113.304 168.341C109.02 166.544 107.144 162.324 104.811 158.652C104.591 161.626 101.747 163.005 99.9938 160.178ZM160.881 108.092C161.176 106.76 161.597 104.849 159.937 104.775C159.831 104.77 158.731 105.045 158.618 105.118C158.052 105.481 157.838 106.694 157.622 107.283C157.432 107.803 157.3 108.494 156.878 108.887C156.462 109.274 156.027 109.284 155.638 109.748C154.456 111.161 153.575 113.588 152.86 115.293C153.83 115.058 153.125 115.709 153.537 116.08C154.182 116.659 153.981 116.555 154.898 116.645C156.495 116.801 157.224 116.375 158.472 115.381C159.531 114.537 159.871 113.985 160.481 112.767C161.352 111.028 160.927 109.919 160.879 108.091C161.316 108.493 161.753 108.895 162.19 109.298C162.055 108.771 161.919 108.244 161.783 107.717L160.881 108.092ZM114.943 2.93173C115.792 0.0269379 117.377 -0.187761 119.509 1.89929C119.846 1.15275 120.246 -0.0064842 121.229 2.73132e-05C121.925 0.00477751 122.049 0.567863 122.516 0.947856C123.08 1.40741 123.519 1.5687 124.235 1.69113C125.797 1.95814 127.248 1.86659 128.718 2.56482C130.057 3.20056 130.694 4.12911 131.725 5.08127C132.689 5.97204 133.393 5.39514 134.494 5.84598C135.718 6.3473 136.266 7.83095 136.503 9.03304C136.792 10.5036 136.491 10.9722 137.513 12.0399C138.477 13.0473 138.989 14.33 139.105 15.7141C139.214 17.0231 138.926 18.5764 138.17 19.6801C137.32 20.9232 136.438 20.5796 137.545 22.0563C138.103 22.7999 138.166 24.3828 138.836 24.8594C140.008 25.6924 141.523 24.3486 142.558 24.0104C143.966 23.5509 143.652 24.3196 144.269 25.2467C145.181 26.6162 145.724 25.2031 146.968 25.4766C147.425 25.5772 147.559 26.0709 147.72 26.1301C148.288 26.3409 147.685 26.2627 148.334 26.0284C148.766 25.8729 148.47 25.0359 149.339 25.5137C149.944 25.8461 149.489 26.4371 149.763 26.8651C150.303 27.7064 151.104 27.216 151.503 28.3018C151.899 29.3833 152.437 30.8176 152.657 32C152.926 33.4365 152.295 34.6865 152.387 36.0455C152.484 37.4649 153.89 38.4214 154.765 39.4164C159.055 44.2931 160.871 50.7072 162.271 56.907C163.572 62.669 161.282 69.1921 156.787 73.0973C154.508 75.0772 151.661 75.9262 149.473 78.1052C148.501 79.0722 148.514 79.3785 149.671 80.1711C150.62 80.8203 151.489 81.6475 152.494 82.1605C155.077 83.4792 157.595 84.4212 160.479 84.9748C161.934 85.2542 163.448 85.1423 164.92 85.09C166.452 85.0355 168.181 85.2527 169.678 85.0656C171.001 84.9003 172.047 83.8326 173.432 83.946C173.975 83.9903 174.308 84.1977 174.86 84.1487C175.586 84.0848 176.196 83.7008 176.968 83.7204C178.141 83.7502 179.301 83.7698 180.436 83.8127C181.724 83.8606 183.238 83.5079 184.52 83.7306C185.737 83.9416 187.183 85.0358 188.242 85.6738C189.546 86.4603 191.112 87.3699 192.28 88.3308C193.384 89.239 194.162 90.6841 195.022 91.8118C195.932 93.0048 196.986 94.0706 197.901 95.2582C201.504 99.9333 205.299 105.692 206.425 111.578C206.711 113.067 206.695 114.538 206.48 116.034C206.288 117.37 205.034 117.878 204.996 119.314C204.919 122.221 206.312 125.591 207.12 128.347C207.972 131.247 209.039 134.065 210.36 136.793C210.872 137.849 211.52 138.723 211.842 139.817C212.235 141.153 212.834 142.421 213.272 143.769C217.059 155.43 222.931 166.286 227.211 177.77C229.51 183.941 231.943 190.059 234.45 196.151C235.684 199.15 237.021 202.057 238.363 205.011C238.539 205.399 238.665 206.147 238.972 206.414C239.491 206.865 239.034 206.608 239.76 206.532C240.387 206.465 241.038 206.18 241.671 206.074C243.199 205.817 244.763 205.773 246.303 205.621C248.073 205.446 249.631 205.355 251.402 205.441C253.05 205.521 254.673 205.031 256.313 204.922C259.83 204.689 263.299 204.812 266.813 204.878C269.551 204.929 273.058 204.604 275.592 205.875C278.13 207.149 277.254 210.082 275.102 211.199C272.522 212.538 269.486 212.729 266.922 214.093C268.846 214.685 270.925 214.533 272.884 214.995C274.148 215.292 276.1 215.513 277.052 216.435C277.974 217.328 277.881 218.866 277.273 219.914C276.515 221.218 275.057 221.444 273.745 221.896C274.336 222.679 275.255 222.618 275.787 223.65C276.494 225.023 276.052 226.49 275.187 227.676C273.309 230.253 269.59 230.471 266.687 230.838C263.835 231.199 260.839 231.286 257.967 231.09C256.331 230.979 254.717 230.897 253.101 230.667C251.242 230.401 251.421 231.704 250.758 233.037C250.118 234.327 249.193 234.88 247.761 234.8C246.216 234.714 244.502 234.609 242.971 234.35C241.506 234.102 240.236 233.345 238.83 233.03C237.564 232.746 236.559 232.286 235.356 231.671C233.976 230.964 233.242 229.782 232.033 228.97C230.793 228.136 229.496 229.446 228.276 230.097C225.312 231.681 222.059 232.381 218.817 233.16C215.511 233.954 212.292 234.97 208.93 235.52C207.365 235.775 205.879 235.741 204.322 235.907C202.527 236.098 200.971 236.784 199.139 236.787C192.667 236.801 186.152 237.969 179.677 238.185C173.267 238.399 166.753 237.869 160.35 238.298C157.076 238.518 153.908 238.078 150.652 238.247C147.293 238.422 143.816 238.245 140.464 237.989C133.509 237.456 126.77 237.595 119.887 237.25C116.307 237.07 112.657 236.733 109.122 236.165C105.656 235.608 101.734 236.249 99.2821 233.234C99.0126 234.416 98.9388 235.642 98.075 236.574C97.1664 237.554 95.7027 237.95 94.4865 238.396C91.3808 239.536 88.2413 240.619 85.1142 241.7C82.1502 242.726 79.1669 243.836 76.1793 244.776C73.0391 245.764 70.0518 246.961 66.9646 248.121C64.1674 249.171 61.2691 250.001 58.5736 251.268C57.4616 251.791 56.2969 251.834 55.2339 252.322C53.921 252.924 52.7015 253.502 51.2949 253.937C50.0884 254.309 48.9848 254.577 47.8172 255.062C46.6612 255.542 45.0235 256.375 43.8138 255.737C42.9634 255.289 42.6295 254.258 42.368 253.398C42.0403 252.322 42.3196 250.456 41.046 250.504C39.7876 250.552 38.0111 251.763 36.7774 252.174C35.3014 252.666 33.7905 253.488 32.2702 253.767C30.748 254.046 29.5499 253.962 28.7514 252.547C27.8527 250.954 28.0024 249.266 28.2712 247.534C25.6803 247.528 23.2804 247.771 20.667 247.86C19.2273 247.909 17.8272 247.973 16.3915 247.814C15.0957 247.671 13.1692 248.077 12.0452 247.484C9.76056 246.278 10.1006 242.867 11.2529 241.002C11.893 239.966 12.896 239.268 13.9154 238.639C15.1938 237.852 16.1311 236.958 17.2507 235.955C16.5205 235.452 15.5709 235.696 14.8548 235.097C14.2987 234.632 13.9525 233.856 13.6985 233.194C13.2252 231.96 13.8351 229.129 12.7671 228.429C12.1967 228.056 11.1864 228.214 10.5347 227.915C9.64431 227.506 9.0191 226.753 8.63548 225.856C7.77159 223.834 8.51196 221.729 9.35477 219.84C6.16153 219.295 1.48029 219.079 0.566999 215.381C0.274921 214.2 0.23496 212.832 0.636749 211.671C1.23326 209.948 2.62244 209.855 4.16276 209.349C10.6026 207.236 16.6342 203.803 23.5725 203.294C27.2889 203.022 31.0321 202.878 34.7441 202.493C38.4725 202.106 42.0668 201.422 45.8199 201.886C47.4165 202.084 49.2648 201.908 50.7921 202.197C52.2688 202.475 52.4559 204.217 51.3272 205.223C50.2301 206.2 48.6389 205.575 47.3326 205.684C45.4813 205.84 43.9217 206.715 42.1932 207.267C37.9519 208.62 33.3045 209.581 28.8815 210.067C26.5071 210.328 24.2646 210.363 21.9403 210.996C19.8289 211.571 17.7393 212.225 15.6206 212.776C17.9355 213.395 22.4195 213.326 23.19 216.146C23.5522 217.473 23.1504 219.309 21.9835 220.13C21.306 220.607 19.826 220.389 19.3995 221.101C21.2221 221.325 23.3008 219.923 24.3013 221.928C25.443 224.216 24.326 226.022 22.8652 227.721C24.1559 227.507 25.483 227.751 26.7865 227.586C27.7924 227.458 28.7318 227.155 29.6876 227.47C30.1672 227.628 30.1039 228.056 30.7095 228.058C31.1498 228.06 31.8092 227.581 32.1914 227.397C33.6438 226.696 35.1176 226.125 36.6187 225.54C38.4452 224.828 40.181 224.28 42.0039 223.834C44.5211 223.216 47.0477 221.631 49.5035 220.735C50.544 220.355 51.8816 219.966 52.3985 218.883C52.9318 217.765 52.5231 216.129 52.4904 214.947C52.3978 211.623 52.4374 208.293 52.4577 204.968C52.4748 202.171 52.542 199.427 52.7909 196.641C53.0884 193.307 52.8221 189.985 52.9496 186.646C53.067 183.58 52.7919 180.521 52.8755 177.456C52.9689 174.042 53.1396 170.639 53.1748 167.221C53.2377 161.08 53.4444 154.947 53.5632 148.808C53.6853 142.502 54.3537 136.193 55.7015 130.027C56.3052 127.265 57.0936 124.451 58.1445 121.827C58.4773 120.996 58.826 120.949 58.0261 120.474C57.5517 120.192 56.9657 120.507 56.5003 120.569C55.5216 120.7 54.648 120.758 53.6518 120.699C47.9418 120.365 42.0297 120.635 36.3404 121.149C33.3815 121.416 30.4066 121.67 27.4356 121.776C24.4727 121.881 21.5098 122.341 18.5465 122.124C13.5815 121.76 7.91872 122.328 3.66361 119.13C-0.877044 115.718 -0.449462 109.673 2.48258 105.305C5.71833 100.485 11.1229 97.7383 15.6359 94.3605C20.0698 91.042 25.2814 88.608 30.117 85.9353C40.4687 80.2133 51.5924 74.917 62.7379 70.9627C74.0773 66.9401 85.4549 62.3155 97.805 63.1016C104.062 63.4998 111.062 63.7323 116.581 67.0567C119.53 68.8331 122.384 70.6851 124.917 73.0316C126.11 74.137 127.162 75.4993 128.433 76.5093C129.614 77.4483 130.772 76.8053 132.122 76.4602C131.166 73.3749 130.21 70.2892 129.254 67.2038C127.933 68.2283 126.117 68.6177 124.4 68.2555C122.316 67.8156 122.485 66.9252 122.671 65.1418C122.758 64.3146 122.984 64.456 122.266 63.9336C121.677 63.5049 120.602 63.3647 119.924 62.9934C118.234 62.0674 116.769 60.7076 116.146 58.8407C115.526 56.9844 115.965 55.2624 116.371 53.4198C116.858 51.2042 115.653 52.1306 114.275 51.1003C113.67 50.6469 113.452 50.2531 113.557 49.5044C113.642 48.8966 114.843 48.0215 114.789 47.4232C114.724 46.702 114.323 46.7827 113.752 46.3478C113.123 45.8679 112.67 45.2794 112.393 44.5242C111.805 42.9246 113.003 41.9365 113.505 40.4616C113.748 39.7467 113.988 39.1353 114.466 38.5337C115.313 37.4678 115.642 37.491 116.824 37.5005C117.819 37.5081 117.808 37.4267 118.553 36.5269C118.842 36.1778 119.131 35.8308 119.381 35.4519C119.81 34.8013 119.929 34.8896 119.47 34.3814C118.071 32.8323 117.432 35.2507 116.19 35.1046C114.752 34.9357 114.494 32.6561 113.593 31.8947C112.962 31.3618 112.243 31.5648 111.553 31.2048C110.71 30.7649 110.54 29.9261 109.993 29.2231C109.104 28.0824 107.814 27.8812 107.221 26.4339C106.885 25.6125 106.839 24.7668 106.77 23.896C106.673 22.6561 106.348 21.676 105.988 20.4957C105.62 19.2917 105.71 18.4217 106.308 17.314C106.924 16.1726 106.997 15.7886 106.842 14.5012C106.724 13.521 106.688 12.651 107.199 11.7765C107.751 10.8342 107.865 10.3423 108.045 9.26881C108.202 8.32755 108.501 7.64967 109.411 7.25914C110.031 6.99286 110.702 7.28929 111.14 6.68298C111.577 6.07775 111.461 5.10815 111.91 4.43935C112.642 3.34842 113.744 3.17768 114.943 2.93173Z" fill="black"/>
<path fill-rule="evenodd" clip-rule="evenodd" d="M151.2 51.4102C150.774 50.4101 149.35 45.7972 151.693 45.7735C153.551 45.7547 152.964 49.7577 152.987 50.7404C153.029 52.5796 154.954 52.8408 155.673 54.5094C156.513 56.4548 155.934 58.7776 154.625 60.3633C153.626 61.5734 151.702 62.96 150.33 61.4786C148.803 59.83 150.27 58.9047 151.339 57.8781C152.887 56.3905 149.925 55.9582 149.156 54.7513C147.849 52.7003 149.284 51.6333 151.2 51.4102Z" fill="black"/>
<path fill-rule="evenodd" clip-rule="evenodd" d="M144.489 52.4504C144.275 53.4 144.34 55.5684 143.308 56.0803C141.578 56.9387 141.178 52.7988 141.192 51.8847C141.206 50.9126 141.543 48.6156 142.976 48.9131C144.585 49.247 143.672 52.2255 144.489 52.4504Z" fill="black"/>
<path fill-rule="evenodd" clip-rule="evenodd" d="M150.962 64.4752C153.52 64.5547 153.376 67.6056 150.923 67.712C148.64 67.8112 148.696 64.4051 150.962 64.4752Z" fill="black"/>
<path fill-rule="evenodd" clip-rule="evenodd" d="M156.401 109.949C156.162 110.965 155.605 111.923 154.77 112.564C154.966 112.162 155.821 109.768 156.401 109.949Z" fill="black"/>
</svg>
