
<svg width="53" height="13" viewBox="0 0 53 13" fill="none" xmlns="http://www.w3.org/2000/svg">
<path d="M1 6.26087L4.98098 2.36758C5.75827 1.60741 7.00045 1.60741 7.77774 2.36758L10.8494 5.37155C11.6267 6.13172 12.8688 6.13172 13.6461 5.37155L16.7178 2.36758C17.4951 1.60741 18.7372 1.60741 19.5145 2.36758L22.5862 5.37155C23.3635 6.13172 24.6056 6.13172 25.3829 5.37155L28.4546 2.36758C29.2318 1.60741 30.474 1.60741 31.2513 2.36758L34.3229 5.37155C35.1002 6.13172 36.3424 6.13172 37.1197 5.37155L40.6117 1.95652" stroke="#FFE700" stroke-width="2"/>
<path d="M12.3882 11.5217L16.3692 7.62844C17.1465 6.86827 18.3886 6.86827 19.1659 7.62844L22.2376 10.6324C23.0148 11.3926 24.257 11.3926 25.0343 10.6324L28.106 7.62844C28.8832 6.86827 30.1254 6.86827 30.9027 7.62844L33.9743 10.6324C34.7516 11.3926 35.9938 11.3926 36.7711 10.6324L39.8427 7.62844C40.62 6.86827 41.8622 6.86827 42.6395 7.62844L45.7111 10.6324C46.4884 11.3926 47.7306 11.3926 48.5079 10.6324L51.9998 7.21739" stroke="#FFE700" stroke-width="2"/>
</svg>
