<svg width="276" height="207" viewBox="0 0 276 207" fill="none" xmlns="http://www.w3.org/2000/svg">
<g clip-path="url(#clip0_61_3406)">
<path fill-rule="evenodd" clip-rule="evenodd" d="M121.018 90.4205C118.565 92.1986 118.956 95.6972 119.694 98.2393C120.781 101.982 122.947 105.447 125.418 108.434C129.801 113.732 137.241 119.681 144.099 115.03C150.207 110.887 154.06 102.528 155.39 95.4873C155.801 93.3114 156.348 90.0694 154.417 88.4334C151.562 86.0155 146.526 86.4553 143.079 86.7666C140.81 86.9715 138.62 87.6673 136.377 87.3407C131.165 86.5812 125.365 87.2691 121.018 90.4205Z" fill="#FFE700"/>
<path fill-rule="evenodd" clip-rule="evenodd" d="M226.682 118.147C221.713 124.45 213.265 125.446 205.763 125.384C201.257 125.347 196.743 125.008 192.327 124.09C189.945 123.595 187.58 122.939 185.279 122.151C183.759 121.631 181.497 121.37 180.85 119.742C179.144 115.445 180.4 110.057 181.102 105.696C181.459 103.478 181.728 101.247 182.075 99.0267C182.297 97.6066 182.404 96.0349 182.999 94.7062C183.696 93.1496 184.577 93.4604 186.051 93.8905C188.081 94.4834 190.167 94.7298 192.255 95.0486C197.351 95.8268 201.797 97.3958 206.428 99.62C211.007 101.819 215.449 103.99 219.534 107.047C221.604 108.597 223.387 110.279 225.048 112.254C226.332 113.78 228.247 116.161 226.682 118.147ZM204.962 146.143C204.922 146.822 197.135 144.773 196.11 144.543C189.386 143.035 182.529 141.317 176.181 138.592C170.256 136.049 165.035 133.139 160.373 128.62C158.199 126.514 156.245 124.296 154.374 121.934C153.437 120.75 152.156 120.887 151.11 119.886C150.17 118.984 149.449 118.28 149.743 116.932C152.093 117.551 156.432 121.443 158.867 119.478C160.256 118.358 158.33 117.188 157.441 116.539C155.77 115.318 154.341 113.812 153.012 112.231C155.293 112.674 157.417 113.528 159.402 114.717C160.284 115.245 163.307 117.161 164.01 115.335C164.443 114.211 162.394 112.798 161.755 112.176C160.185 110.649 158.491 108.866 157.658 106.813C159.718 106.336 161.66 107.928 163.063 109.224C164.62 110.664 166.529 112.175 167.834 113.834C168.508 114.69 168.655 115.7 169.181 116.623C169.773 117.661 170.72 118.551 171.625 119.32C173.369 120.8 175.409 121.89 177.503 122.792C182.287 124.852 187.415 126.309 192.515 127.332C195.017 127.834 197.458 128.065 199.997 128.15C201.971 128.216 202.844 128.806 203.597 130.625C205.637 135.545 205.266 140.958 204.962 146.143ZM146.398 108.651C145.257 109.719 143.774 110.389 142.581 111.415C141.532 112.318 140.321 113.282 139.15 114.012C137.899 114.792 136.965 114.245 135.839 113.54C134.517 112.712 132.998 112.377 131.637 111.636C126.93 109.075 121.171 102.797 122.05 97.0337C122.422 94.5908 123.685 92.1872 125.979 91.0788C128.062 90.0724 131.089 89.5139 133.318 90.3551C134.575 90.8298 135.474 91.8777 136.279 92.9077C137.218 94.1085 137.578 93.9192 138.534 92.761C140.246 90.6892 143.068 88.8715 145.858 88.9152C147.244 88.9372 148.621 89.2295 149.87 89.8049C150.04 89.883 150.134 90.1192 150.304 90.1993C150.512 90.2974 150.855 90.0931 151 90.1849C151.366 90.4163 151.731 91.1397 151.942 91.5066C152.788 92.9791 154.312 95.867 152.776 97.1067C152.775 97.1073 152.845 98.7842 152.824 98.9754C152.715 99.9758 152.37 100.802 151.924 101.717C150.586 104.465 148.611 106.581 146.398 108.651ZM148.673 131.906C147.592 132.242 146.428 128.855 147.465 128.314C148.453 127.798 149.652 131.602 148.673 131.906ZM131.696 127.856C131.321 129.136 131.163 130.588 130.248 131.629C129.41 130.635 129.327 128.799 130.14 127.777C130.604 127.194 132.105 126.458 131.696 127.856ZM166.286 105.436C166.28 105.469 167.587 106.094 166.949 106.777C166.078 107.71 166.198 105.894 166.286 105.436ZM171.686 95.0075C171.671 96.3015 168.932 95.989 168.952 94.6878C168.976 93.0862 171.702 93.6361 171.686 95.0075ZM168.417 84.1943C168.688 83.0097 173.452 81.3619 173.322 83.4263C173.257 84.4614 167.842 86.7127 168.417 84.1943ZM119.576 124.366C119.042 125.008 118.284 125.262 117.644 125.754C116.972 126.271 116.492 126.941 115.906 127.547C114.296 129.212 112.358 130.58 110.621 132.109C107.427 134.92 104.368 137.942 100.828 140.326C94.5003 144.586 87.163 146.916 79.8791 148.957C79.2757 149.126 77.5374 149.808 76.9404 149.3C76.2965 148.752 76.6239 146.823 76.6536 146.094C76.7743 143.105 77.1228 140.08 77.0851 137.096C77.0695 135.869 76.7104 134.127 77.3502 133.005C78.0645 131.752 80.0586 131.385 81.2922 130.914C85.0415 129.481 88.6531 127.064 91.9651 124.825C96.0364 122.072 100.148 119.274 104.338 116.705C108.443 114.188 112.971 112.502 117.549 111.065C117.761 111.51 115.577 112.945 115.327 113.146C114.129 114.11 112.826 115.11 111.937 116.383C111.307 117.284 110.661 119.324 112.4 119.376C113.242 119.401 114.488 118.586 115.252 118.323C116.514 117.887 117.814 117.581 119.135 117.382C118 118.632 114.153 120.877 114.853 122.955C115.532 124.971 119.46 122.618 120.812 122.618C120.59 123.321 120.033 123.817 119.576 124.366ZM73.1726 129.995C70.6572 130.879 68.0789 131.383 65.4827 131.953C63.0082 132.498 60.7208 132.908 58.1863 132.589C54.6867 132.15 50.8141 130.7 50.3705 126.723C49.8444 122.012 53.1717 117.683 56.0289 114.303C59.5061 110.19 63.4106 106.513 67.6422 103.184C71.8691 99.8585 76.4313 96.9263 81.211 94.4509C84.8472 92.5678 88.954 91.4244 92.7988 90.0112C93.5302 89.7424 95.5534 88.7976 96.2376 89.5805C96.7905 90.2136 96.038 91.2685 95.786 91.8563C95.2944 93.0023 95.2267 94.156 95.0999 95.3865C94.5329 100.882 93.8506 106.375 93.5366 111.894C93.4491 113.432 93.2952 115.041 93.3849 116.58C93.4344 117.433 93.8781 118.519 93.5826 119.351C93.0147 120.951 90.414 122.01 89.0358 122.725C86.5683 124.004 83.9554 124.959 81.4627 126.183C78.725 127.527 76.0595 128.979 73.1726 129.995ZM108.059 94.2886C108.749 94.194 109.783 94.0059 110.399 94.4531C111.202 95.0365 110.991 95.8481 110.25 96.2712C109.664 96.6056 108.294 96.6971 107.716 96.3936C106.73 95.8768 106.897 94.4487 108.059 94.2886ZM111.883 107.013C111.325 107.943 109.285 108.552 109.463 106.818C109.615 105.333 112.91 105.302 111.883 107.013ZM111.126 80.834C112.023 81.1814 113.65 81.4789 113.916 82.6326C114.164 83.7066 113.146 83.6355 112.412 83.3399C111.808 83.0973 109.117 80.8155 111.126 80.834ZM251.658 121.8C251.134 119.761 251.533 117.504 251.244 115.416C250.963 113.392 250.459 111.532 249.734 109.624C248.131 105.402 246.294 101.6 243.695 97.8938C238.8 90.9143 233.121 84.7665 226.263 79.6685C219.493 74.6358 211.995 70.5458 204.054 67.6793C195.632 64.6393 187.155 63.5813 178.275 62.9985C175.623 62.8248 172.973 62.6186 170.336 62.2835C168.409 62.0387 165.993 61.7371 164.087 62.3275C162.89 62.6986 162.221 63.7426 163.525 64.4277C164.45 64.9135 165.66 64.9715 166.682 65.1006C165.448 69.0198 163.441 72.9523 160.26 75.6508C157.154 78.2856 152.999 79.1887 149.08 79.8569C146.954 80.219 144.574 80.4992 142.416 80.343C141.052 80.2445 139.987 79.6127 139.436 81.0182C139.054 81.9947 138.874 83.0661 138.37 81.5917C137.774 79.8486 137.482 79.8598 135.629 79.3647C131.839 78.3522 127.494 77.4284 124.188 75.239C120.758 72.9673 119.565 69.2923 117.65 65.8705C117.176 65.0248 115.748 63.3129 116.477 62.3438C117.145 61.4575 119.316 61.5458 120.31 61.4534C121.359 61.3558 122.414 61.3517 123.467 61.3109C124.076 61.2873 125.303 61.5372 125.058 60.6265C124.687 59.2538 120.722 59.4297 119.737 59.4074C117.906 59.3663 116.05 59.4087 114.228 59.6102C105.194 60.6093 96.0785 62.4566 87.3365 64.9202C70.3755 69.6994 53.9486 78.5062 41.5706 91.1935C29.6889 103.372 25.9246 123.639 33.229 139.189C37.025 147.27 45.263 150.59 53.2487 153.271C57.4609 154.685 61.9212 155.792 66.3988 155.525C68.5475 155.397 70.5863 154.818 72.682 154.382C73.5958 154.192 74.6358 153.889 75.5746 153.965C76.2853 154.023 76.9679 154.676 77.6345 154.329C78.1076 154.083 78.3133 153.377 78.8914 153.076C79.5855 152.715 80.4272 152.585 81.1768 152.403C83.2607 151.896 85.2785 151.076 87.3154 150.403C89.4216 149.706 91.4093 148.81 93.4303 147.904C94.4508 147.446 96.8123 145.585 97.4773 146.945C97.7804 147.566 97.6514 148.764 97.7251 149.415C97.8545 150.554 98.0065 151.691 98.1726 152.825C98.5387 155.322 98.9769 157.809 99.426 160.292C100.237 164.773 101.281 169.063 103.028 173.279C104.422 176.644 105.647 180.459 108.236 183.137C109.367 184.305 110.909 184.831 112.53 184.464C114.375 184.046 115.293 182.371 116.412 181.017C118.876 178.036 122.942 175.752 126.698 174.93C131.296 173.923 135.776 175.396 140.165 176.647C144.808 177.971 149.535 179.233 154.092 180.824C158.339 182.307 162.925 184.498 167.53 184.307C171.547 184.141 175.298 180.872 178.195 178.38C181.104 175.878 184.741 172.214 188.924 172.509C191.002 172.655 192.894 173.657 194.918 174.064C197.139 174.512 199.502 174.575 201.761 174.742C204.565 174.949 210.837 174.218 211.874 170.845C212.028 170.344 212.029 169.314 211.368 169.114C210.761 168.93 210.45 169.64 209.874 169.608C208.703 169.542 207.787 167.499 207.144 166.708C204.546 163.515 200.983 161.134 198.068 158.25C194.777 154.993 191.967 151.048 189.487 147.156C190.608 146.865 191.818 147.349 192.903 147.579C194.222 147.858 195.506 148.196 196.806 148.553C198.238 148.948 199.69 149.219 201.143 149.519C202.228 149.743 203.667 149.811 204.646 150.354C205.5 150.829 205.977 151.339 207.038 151.477C208.117 151.617 209.224 151.499 210.308 151.492C213.239 151.472 216.164 151.418 219.081 151.108C229.389 150.013 240.315 145.653 246.513 137C248.199 134.646 249.558 132.039 250.416 129.272C251.086 127.112 252.241 124.068 251.658 121.8Z" fill="black"/>
<path fill-rule="evenodd" clip-rule="evenodd" d="M154.977 22.1038C157.686 22.1422 160.225 22.9454 162.749 23.8586C164.969 24.6616 167.336 25.4044 169.13 27.0071C172.359 29.8902 173.2 34.6638 173.728 38.7479C174.387 43.8442 172.194 48.12 170.348 52.7307C168.622 57.0429 165.454 60.5362 161.688 63.1981C159.715 64.5925 157.534 65.4341 155.253 66.1722C152.935 66.9218 150.691 67.9257 148.212 67.9219C144.447 67.9164 139.626 66.1281 138.022 62.4185C137.292 60.7295 138.003 60.4263 139.464 61.3442C141.584 62.676 143.628 64.1132 146.105 64.704C150.909 65.8501 156.663 64.0745 160.875 61.7318C165.086 59.3898 167.913 55.8715 169.803 51.4906C171.709 47.071 172.45 42.716 171.714 37.9513C171.092 33.9135 169.852 30.2253 166.214 28.0334C158.359 23.3023 147.776 23.6835 140.79 29.832C139.832 30.6749 138.885 31.4951 137.898 32.3C137.271 32.8115 136.532 33.4253 136.623 34.3101C136.701 35.0676 138.316 37.9887 136.371 37.0915C134.794 36.3639 133.937 34.9418 132.027 34.7657C129.994 34.5781 127.569 36.14 126.961 38.1056C126.381 39.9812 127.415 42.5473 129.035 43.6231C130.039 44.2893 131.143 44.1864 132.282 44.1596C132.848 44.1461 134.422 43.9624 134.796 44.5602C135.458 45.6175 133.122 46.7288 132.368 46.9627C130.534 47.5318 128.366 46.8621 127.311 45.2245C126.239 43.5598 125.506 41.6331 125.358 39.6499C125.217 37.7497 125.648 35.8259 126.769 34.2657C127.961 32.6064 130.392 30.7462 132.571 31.3226C133.516 31.5728 134.276 32.5498 135.204 32.7355C135.79 32.8524 135.544 32.9361 136.029 32.5019C136.337 32.2265 136.628 31.7181 136.913 31.3916C138.548 29.5141 140.165 27.5104 142.166 26.0077C145.755 23.3132 150.525 22.0405 154.977 22.1038ZM145.053 59.3272C145.478 58.3322 146.257 60.1072 146.488 60.404C146.944 60.991 148.018 61.4478 147.971 62.3138C147.895 63.7433 145.946 63.4781 145.296 62.7324C144.557 61.8834 144.634 60.3098 145.053 59.3272ZM158.897 52.5586C159.948 54.1968 158.667 55.9651 157.836 57.415C157.041 58.8012 156.303 60.3684 155.378 61.6716C153.842 63.8355 150.501 61.4947 150.402 59.2708C150.326 57.5683 151.532 58.3094 152.306 58.9453C153.103 59.6001 153.48 59.7632 154.315 59.0479C155.995 57.6084 156.75 55.2014 157.912 53.3788C158.142 53.0175 158.559 52.8001 158.897 52.5586ZM161.893 53.0853C162.165 53.8776 161.596 55.9767 163.177 55.7668C164.05 55.651 164.237 54.3975 164.696 53.8505C166.24 52.0114 165.767 55.4897 165.363 56.3603C164.474 58.2789 161.984 59.6009 160.75 57.1668C160.29 56.2614 160.292 55.1186 160.526 54.1452C160.653 53.6151 161.393 51.6224 161.893 53.0853ZM147.797 49.3333C147.657 50.2577 146.788 52.0992 147.849 52.7605C148.782 53.3426 150.407 52.0786 151.126 51.5508C151.873 51.0023 153.566 49.429 153.632 51.3869C153.666 52.385 152.667 53.5824 151.954 54.1574C150.433 55.3836 147.273 56.4834 146.152 54.1755C145.541 52.9182 145.875 51.1284 146.279 49.8614C146.606 48.8346 148.135 47.1006 147.797 49.3333ZM167.745 44.2726C168.364 44.9914 169.831 46.6018 169.034 47.6254C168.101 48.8219 166.586 46.6267 165.988 46.0157C165.45 45.4653 164.318 43.8979 164.801 43.0666C165.6 41.6909 167.202 43.6416 167.745 44.2726ZM158.017 41.1776C160.04 42.4957 157.38 43.4448 156.228 43.5627C154.833 43.705 153.05 43.7994 151.769 43.115C149.953 42.1449 150.558 40.6795 152.318 40.3287C154.123 39.9693 156.447 40.1546 158.017 41.1776ZM131.715 36.9817C133.202 37.2712 134.902 37.648 135.409 39.27C135.932 40.9464 135.18 41.5028 133.66 41.1254C132.254 40.7761 130.154 40.4246 129.359 39.0511C128.409 37.4102 130.335 36.7136 131.715 36.9817Z" fill="black"/>
<path fill-rule="evenodd" clip-rule="evenodd" d="M49.8488 73.0026C49.3495 74.615 46.8224 75.6845 45.5622 76.6646C41.1542 80.0939 36.8468 83.6643 32.8617 87.5781C30.7933 89.6095 29.2277 92.0666 27.434 94.326C26.9964 94.8773 26.2211 96.1123 25.3628 95.9963C24.421 95.8695 24.2307 94.2475 24.2607 93.5392C24.3635 91.1237 26.5696 88.7909 28.1429 87.1276C29.9126 85.2574 31.8047 83.4348 33.737 81.7317C35.8645 79.857 38.1731 78.2456 40.5258 76.6678C42.8361 75.1186 45.0511 73.3288 47.4536 71.9255C48.5854 71.2646 50.4647 71.0131 49.8488 73.0026ZM203.933 57.6894C205.773 57.7474 207.569 58.3509 209.304 58.9112C213.121 60.1438 216.756 61.8537 220.341 63.6408C226.626 66.7734 232.674 70.5636 238.218 74.873C239.377 75.7736 240.565 76.5034 241.825 77.2399C242.632 77.7117 243.782 78.2873 244.092 79.2488C244.882 81.693 240.898 79.2398 240.332 78.8889L239.537 78.3958C227.741 71.0852 215.959 63.9821 202.617 59.7897C201.906 59.5663 201.685 58.9323 202.058 58.3038C202.462 57.6228 203.25 57.6679 203.933 57.6894ZM49.312 62.8047C49.2267 63.5489 48.3838 63.7182 47.8153 63.9571C45.6941 64.8481 43.5199 65.608 41.4044 66.5138C37.478 68.1948 33.8722 70.6345 29.774 71.9103C28.8375 72.2024 28.6993 71.2571 28.95 70.614C29.2293 69.8961 30.068 69.3921 30.6746 68.9768C32.4246 67.778 34.4093 66.9162 36.3526 66.0835C38.2793 65.2572 40.263 64.6323 42.2383 63.9398C44.0743 63.2959 46.2051 62.0978 48.1767 62.0093L48.2628 62.0051C48.8903 61.9734 49.4114 61.931 49.312 62.8047ZM207.282 51.4992C205.406 50.9716 207.179 49.784 208.293 49.8675C209.537 49.9606 210.739 50.5478 211.919 50.902C215.525 51.9847 218.867 53.1688 222.236 54.8493C222.738 55.1002 224.951 56.2897 223.487 56.8164C222.473 57.1813 220.103 55.6156 219.232 55.24C215.404 53.5894 211.29 52.6263 207.282 51.4992Z" fill="black"/>
<path fill-rule="evenodd" clip-rule="evenodd" d="M132.504 55.3432C132.738 54.6552 135.638 47.1348 134.503 46.908C133.301 46.6675 131.694 51.0308 131.345 51.8192C130.057 54.7307 129.294 57.8547 128.696 60.9777C128.28 63.1522 127.914 65.3799 128.06 67.6031C128.172 69.3116 128.878 69.5702 130.041 70.6172C130.041 65.4276 130.829 60.255 132.504 55.3432Z" fill="black"/>
</g>
<defs>
<clipPath id="clip0_61_3406">
<rect width="276" height="207" fill="white"/>
</clipPath>
</defs>
</svg>
